<?xml version="1.0" encoding="utf-8"?>
<!-- Generator: Adobe Illustrator 23.0.4, SVG Export Plug-In . SVG Version: 6.00 Build 0)  -->
<svg version="1.1" id="Layer_1" xmlns="http://www.w3.org/2000/svg" xmlns:xlink="http://www.w3.org/1999/xlink" x="0px" y="0px"
	 viewBox="0 0 500 500" style="enable-background:new 0 0 500 500;" xml:space="preserve">
<title>arrow-right-circle</title>
<path id="Artboard_1" d="M250.8,108.9c-3.9-3.9-10.2-3.9-14.1,0l0,0L222.5,123c-3.9,3.9-3.9,10.2,0,14.1l93.2,93H117
	c-5.5,0-10,4.5-10,10v20c0,5.5,4.5,10,10,10h198.7l-93.2,93c-3.9,3.9-3.9,10.2,0,14.1l14.2,14.1c3.9,3.9,10.2,3.9,14.1,0l0,0
	l141.6-141.2L250.8,108.9z M250,40C134,40,40,134,40,250s94,210,210,210s210-94,210-210S366,40,250,40z M250,420
	c-93.9,0-170-76.1-170-170S156.1,80,250,80s170,76.1,170,170S343.9,420,250,420L250,420z"/>
</svg>
