<?xml version="1.0" encoding="utf-8"?>
<!-- Generator: Adobe Illustrator 23.0.4, SVG Export Plug-In . SVG Version: 6.00 Build 0)  -->
<svg version="1.1" id="Layer_1" xmlns="http://www.w3.org/2000/svg" xmlns:xlink="http://www.w3.org/1999/xlink" x="0px" y="0px"
	 viewBox="0 0 500 500" style="enable-background:new 0 0 500 500;" xml:space="preserve">
<title>arrow-up</title>
<path id="Artboard_1" d="M391.1,189.5L249.5,48L107.9,189.5c-3.9,3.9-3.9,10.2,0,14.1c0,0,0,0,0,0l14.2,14.1
	c3.9,3.9,10.2,3.9,14.1,0c0,0,0,0,0,0l93.2-93.2V443c0,5.5,4.5,10,10,10h20c5.5,0,10-4.5,10-10V124.6l93.2,93.2
	c3.9,3.9,10.2,3.9,14.1,0c0,0,0,0,0,0l14.2-14.1C394.9,199.7,395,193.4,391.1,189.5C391.1,189.5,391.1,189.5,391.1,189.5z"/>
</svg>
