<?xml version="1.0" encoding="utf-8"?>
<!-- Generator: Adobe Illustrator 23.0.4, SVG Export Plug-In . SVG Version: 6.00 Build 0)  -->
<svg version="1.1" id="Layer_1" xmlns="http://www.w3.org/2000/svg" xmlns:xlink="http://www.w3.org/1999/xlink" x="0px" y="0px"
	 viewBox="0 0 500 500" style="enable-background:new 0 0 500 500;" xml:space="preserve">
<title>arrow-left</title>
<path id="Artboard_1" d="M443,230.8H124.2l93.3-93.1c3.9-3.9,3.9-10.2,0-14.1l-14.2-14.1c-3.9-3.9-10.2-3.9-14.1,0c0,0,0,0,0,0
	L47.5,250.7l141.6,141.3c3.9,3.9,10.2,3.9,14.1,0c0,0,0,0,0,0l14.2-14.1c3.9-3.9,3.9-10.2,0-14.1l-93.3-93.1H443c5.5,0,10-4.5,10-10
	v-20C453,235.2,448.5,230.7,443,230.8z"/>
</svg>
