<?xml version="1.0" encoding="utf-8"?>
<!-- Generator: Adobe Illustrator 23.0.4, SVG Export Plug-In . SVG Version: 6.00 Build 0)  -->
<svg version="1.1" id="Layer_1" xmlns="http://www.w3.org/2000/svg" xmlns:xlink="http://www.w3.org/1999/xlink" x="0px" y="0px"
	 viewBox="0 0 500 500" style="enable-background:new 0 0 500 500;" xml:space="preserve">
<title>arrow-left-circle</title>
<path id="Artboard_1" d="M383,230.8H184.2l93.3-93.1c3.9-3.9,3.9-10.2,0-14.1l-14.2-14.1c-3.9-3.9-10.2-3.9-14.1,0l0,0L107.5,250.7
	L249.1,392c3.9,3.9,10.2,3.9,14.1,0l0,0l14.2-14.1c3.9-3.9,3.9-10.2,0-14.1l-93.3-93.1H383c5.5,0,10-4.5,10-10v-20
	C393,235.2,388.5,230.7,383,230.8z M250,40C134,40,40,134,40,250s94,210,210,210s210-94,210-210S366,40,250,40z M250,420
	c-93.9,0-170-76.1-170-170S156.1,80,250,80s170,76.1,170,170S343.9,420,250,420L250,420z"/>
</svg>
