<?xml version="1.0" encoding="utf-8"?>
<!-- Generator: Adobe Illustrator 23.0.4, SVG Export Plug-In . SVG Version: 6.00 Build 0)  -->
<svg version="1.1" id="Layer_1" xmlns="http://www.w3.org/2000/svg" xmlns:xlink="http://www.w3.org/1999/xlink" x="0px" y="0px"
	 viewBox="0 0 500 500" style="enable-background:new 0 0 500 500;" xml:space="preserve">
<title>arrow-down</title>
<path d="M391.5,296.8l-14.1-14.1c-3.9-3.9-10.2-3.9-14.1,0l-93.1,93.1V57.5c0-5.5-4.5-10-10-10h-20c-5.5,0-10,4.5-10,10v318.3
	L137,282.7c-3.9-3.9-10.2-3.9-14.1,0l-14.2,14.1c-3.9,3.9-3.9,10.2,0,14.1l0,0l141.4,141.4L391.5,311
	C395.5,307.1,395.5,300.8,391.5,296.8C391.6,296.8,391.6,296.8,391.5,296.8z"/>
</svg>
