<?xml version="1.0" encoding="utf-8"?>
<!-- Generator: Adobe Illustrator 23.0.4, SVG Export Plug-In . SVG Version: 6.00 Build 0)  -->
<svg version="1.1" id="Layer_1" xmlns="http://www.w3.org/2000/svg" xmlns:xlink="http://www.w3.org/1999/xlink" x="0px" y="0px"
	 viewBox="0 0 500 500" style="enable-background:new 0 0 500 500;" xml:space="preserve">
<title>arrow-down-circle</title>
<path id="Artboard_1" d="M391.5,236.8l-14.1-14.1c-3.9-3.9-10.2-3.9-14.1,0l-93.1,93.1V117.5c0-5.5-4.5-10-10-10h-20
	c-5.5,0-10,4.5-10,10v198.3L137,222.7c-3.9-3.9-10.2-3.9-14.1,0l-14.2,14.1c-3.9,3.9-3.9,10.2,0,14.1l0,0l141.4,140.4L391.5,251
	C395.5,247.1,395.5,240.8,391.5,236.8C391.6,236.8,391.6,236.8,391.5,236.8z M250,40C134,40,40,134,40,250s94,210,210,210
	s210-94,210-210S366,40,250,40z M250,420c-93.9,0-170-76.1-170-170S156.1,80,250,80s170,76.1,170,170S343.9,420,250,420L250,420z"/>
</svg>
