<?xml version="1.0" encoding="utf-8"?>
<!-- Generator: Adobe Illustrator 23.0.4, SVG Export Plug-In . SVG Version: 6.00 Build 0)  -->
<svg version="1.1" id="Layer_1" xmlns="http://www.w3.org/2000/svg" xmlns:xlink="http://www.w3.org/1999/xlink" x="0px" y="0px"
	 viewBox="0 0 500 500" style="enable-background:new 0 0 500 500;" xml:space="preserve">
<title>arrow-right</title>
<path id="Artboard_1" d="M310.8,108.9c-3.9-3.9-10.2-3.9-14.1,0c0,0,0,0,0,0l-14.2,14.1c-3.9,3.9-3.9,10.2,0,14.1l93.2,93H57
	c-5.5,0-10,4.5-10,10v20c0,5.5,4.5,10,10,10h318.7l-93.2,93c-3.9,3.9-3.9,10.2,0,14.1l14.2,14.1c3.9,3.9,10.2,3.9,14.1,0
	c0,0,0,0,0,0l141.6-141.2L310.8,108.9z"/>
</svg>
