<?xml version="1.0" encoding="utf-8"?>
<!-- Generator: Adobe Illustrator 24.3.0, SVG Export Plug-In . SVG Version: 6.00 Build 0)  -->
<svg version="1.1" id="Layer_1" xmlns="http://www.w3.org/2000/svg" xmlns:xlink="http://www.w3.org/1999/xlink" x="0px" y="0px"
	 viewBox="0 0 500 500" style="enable-background:new 0 0 500 500;" xml:space="preserve">
<path id="Artboard_1" d="M452.1,460l7.9-7.9v7.9H452.1z M409.7,460l50.3-50.3v21.2L430.9,460H409.7z M367.3,460l92.7-92.7v21.2
	L388.5,460H367.3L367.3,460z M324.8,460l60-60H400v-15.1l60-60v21.2L346.1,460H324.8L324.8,460z M400,342.4l60-60v21.2l-60,60V342.4
	z M400,300l60-60v21.2l-60,60V300z M400,257.6l60-60v21.2l-60,60V257.6L400,257.6z M400,215.1l60-60v21.2l-60,60V215.1L400,215.1z
	 M400,172.7l60-60v21.2l-60,60V172.7L400,172.7z M400,130.3l60-60v21.2l-60,60V130.3L400,130.3z M400,100h-12.1l60-60H460v9.1
	l-60,60V100z M345.4,100l60-60h21.2l-60,60H345.4z M303,100l60-60h21.2l-60,60H303z M260.6,100l60-60h21.2l-60,60H260.6z M218.2,100
	l60-60h21.2l-60,60H218.2z M175.7,100l60-60h21.2l-60,60H175.7z M133.3,100l60-60h21.2l-60,60H133.3z M100,100v12.1l-60,60v-21.2
	L150.9,40h21.2l-60,60H100z M40,108.5L108.5,40h21.2L40,129.7V108.5z M40,66l26-26h21.2L40,87.2V66z M40,40h4.8L40,44.8V40z
	 M100,154.5l-60,60v-21.2l60-60V154.5L100,154.5z M100,196.9l-60,60v-21.2l60-60V196.9L100,196.9z M100,239.4l-60,60v-21.2l60-60
	V239.4L100,239.4z M100,281.8l-60,60v-21.2l60-60V281.8L100,281.8z M100,324.2l-60,60V363l60-60V324.2L100,324.2z M100,366.7l-60,60
	v-21.2l60-60V366.7L100,366.7z M100,400h9.1l-60,60H40v-12.1l60-60V400z M151.5,400l-60,60H70.3l60-60H151.5L151.5,400z M193.9,400
	l-60,60h-21.2l60-60H193.9z M236.4,400l-60,60h-21.2l60-60H236.4z M278.8,400l-60,60h-21.2l60-60H278.8z M321.2,400l-60,60H240
	l60-60H321.2L321.2,400z M363.6,400l-60,60h-21.2l60-60H363.6L363.6,400z M363.4,349.5c-3.2-0.2-6.4-0.7-9.5-1.6
	c-3.2-0.7-6.3-2-9.2-3.6c-3.1-2-5.8-4.4-8.1-7.2c-2.2-2.9-4-6.2-5.2-9.6l-72.3-187.2h-12.2c-10.3,26.5-22,56.7-35.2,90.7
	s-25.2,64.5-36.1,91.8c-1.7,4.4-3.9,8.6-6.6,12.5c-2.7,3.4-5.9,6.3-9.5,8.6c-3,1.8-6.3,3.1-9.8,3.9c-3.3,0.8-6.6,1.4-9.9,1.8v10.9
	h81.7v-10.9c-7.4-0.3-14.7-1.6-21.7-4c-6.4-2.2-9.6-5.4-9.6-9.5c0.1-2.3,0.3-4.5,0.8-6.7c0.7-3.6,1.7-7.2,2.8-10.7
	c1.4-4.5,3-9.4,4.8-14.7c1.8-5.3,4.1-11.5,7-18.7h76.2l18,48.6c0.4,1.1,0.7,2.3,0.9,3.5c0.2,1.1,0.3,2.2,0.3,3.4
	c0,2.2-2.6,4.1-7.9,5.7c-6.5,1.7-13.1,2.7-19.8,3.1v10.9h90.2L363.4,349.5L363.4,349.5z M210.8,271.6l32.4-84.2l32.9,84.2H210.8z"/>
</svg>
