<svg xmlns="http://www.w3.org/2000/svg" width="500" height="500" viewBox="0 0 500 500">
  <defs>
    <style>
      .cls-1 {
        fill: #222;
        fill-rule: evenodd;
      }
    </style>
  </defs>
  <g id="Artboard_1" data-name="Artboard 1">
    <g id="Next">
      <path id="B" class="cls-1" d="M313.862,248.8a126.856,126.856,0,0,0-25.158-5.357v-2.951a157.3,157.3,0,0,0,22.673-6.988,77.374,77.374,0,0,0,18.169-9.939,43.84,43.84,0,0,0,12.89-14.675,41.22,41.22,0,0,0,4.5-19.645q0-24.225-20.033-36.649t-65.223-12.424H141.952v12.113q4.812,0.78,11.181,2.1a61.249,61.249,0,0,1,11.181,3.339q6.522,2.794,8.231,6.522a22.377,22.377,0,0,1,1.708,9.318V328.856a20.333,20.333,0,0,1-2.1,9.861q-2.1,3.807-7.842,6.134-2.952,1.245-10.249,2.174t-12.113,1.4v12.113H256.4a272.492,272.492,0,0,0,42.939-2.951,108.424,108.424,0,0,0,32.223-10.094,48.985,48.985,0,0,0,20.266-18.247Q358.9,317.678,358.9,300.9q0-13.976-6.212-24.3a55.034,55.034,0,0,0-16.151-17.16A86.769,86.769,0,0,0,313.862,248.8Zm-39.29-23.915q-11.96,11.727-37.115,11.725h-8.075V154.927q3.414-.153,8.153-0.388t7.687-.233q20.652,0,30.981,10.25T286.53,193.13Q286.53,213.163,274.572,224.887Zm11.259,109.074Q274.26,346.405,255.782,346.4q-10.406,0-17.7-3.965t-8.7-9.723v-80.73q2.329-.153,7.221-0.389t7.842-.232q25.625,0,39.29,12.29T297.4,298.962Q297.4,321.518,285.831,333.961Z"/>
    </g>
  </g>
</svg>
