<?xml version="1.0" encoding="utf-8"?>
<!-- Generator: Adobe Illustrator 25.4.1, SVG Export Plug-In . SVG Version: 6.00 Build 0)  -->
<svg version="1.1" id="Layer_1" xmlns="http://www.w3.org/2000/svg" xmlns:xlink="http://www.w3.org/1999/xlink" x="0px" y="0px"
	 viewBox="0 0 500 500" style="enable-background:new 0 0 500 500;" xml:space="preserve">
<path id="Artboard_1" d="M99,313.3l40.3-37.2l-48.7-40.6l60.6-19.1l-24.4-102l73.8,49.9l50-124l21.8,134.2l53.6-34.4l-9.8,70.1h92.5
	l-76.9,60.2l38.8,37.1l-48.2,15.5L380.7,460L268,377.5l-28.7,46.5l-23.9-50.1l-81.3,77.4l23.2-123.8L99,313.3z M179.5,292.3
	l23.2,5.6l-7.8,41.3l32.8-31l16,33.8l13.2-21.3l31.8,23.3l-19.3-45.4l26.1-8.4l-23.7-22.7l22.9-17.9h-23.5l4.2-30.3l-32.1,20.6
	l-8.9-54.9l-15.8,39l-30.6-20.6l9.6,39.6l-26.8,8.5l27.8,23.2L179.5,292.3 M183.5,310.5l-14.3,76.2l53.3-50.8l19.4,40.7l19.7-31.9
	l66.1,48.5l-36-84.5l35.6-11.3l-30.1-28.8l45.8-35.9h-52.8l6.7-47l-41.2,26.5l-14.3-88.5L211,198.6l-48.9-32.9l15.8,66l-41.1,13
	l36.6,30.6l-28.2,25.9L183.5,310.5z"/>
</svg>
