<svg xmlns="http://www.w3.org/2000/svg" viewBox="0 0 500 500"><defs><style>.cls-1{isolation:isolate;}</style></defs><title>checkmark-circle</title><g id="Artboard_1" data-name="Artboard 1" class="cls-1"><g id="Next"><g id="Ready"><g id="check-circle"><path d="M250,40C134,40,40,134,40,250s94,210,210,210,210-94,210-210S366,40,250,40Zm0,380A170,170,0,1,1,420,250,170,170,0,0,1,250,420ZM384.69,176.1,370.55,162a10,10,0,0,0-14.14,0l-148.5,148.5-63.63-63.64a10,10,0,0,0-14.15,0L116,261a10,10,0,0,0,0,14.14l84.85,84.85a10,10,0,0,0,14.15,0l169.7-169.7A10,10,0,0,0,384.69,176.1Z"/></g></g></g></g></svg>