<?xml version="1.0" encoding="utf-8"?>
<!-- Generator: Adobe Illustrator 23.0.4, SVG Export Plug-In . SVG Version: 6.00 Build 0)  -->
<svg version="1.1" id="Layer_1" xmlns="http://www.w3.org/2000/svg" xmlns:xlink="http://www.w3.org/1999/xlink" x="0px" y="0px"
	 viewBox="0 0 500 500" style="enable-background:new 0 0 500 500;" xml:space="preserve">
<title>check-circle-disc</title>
<path id="Artboard_1" d="M250,40C134,40,40,134,40,250s94,210,210,210s210-94,210-210S366,40,250,40z M384.7,190.2L215,359.9
	c-3.9,3.9-10.2,3.9-14.1,0c0,0,0,0,0,0L116,275.1c-3.9-3.9-3.9-10.2,0-14.1l14.1-14.1c3.9-3.9,10.2-3.9,14.1,0c0,0,0,0,0,0
	l63.6,63.6L356.4,162c3.9-3.9,10.2-3.9,14.1,0l14.1,14.1C388.6,180.1,388.6,186.3,384.7,190.2z"/>
</svg>
