<?xml version="1.0" encoding="utf-8"?>
<!-- Generator: Adobe Illustrator 24.0.3, SVG Export Plug-In . SVG Version: 6.00 Build 0)  -->
<svg version="1.1" id="Layer_1" xmlns="http://www.w3.org/2000/svg" xmlns:xlink="http://www.w3.org/1999/xlink" x="0px" y="0px"
	 viewBox="0 0 500 500" style="enable-background:new 0 0 500 500;" xml:space="preserve">
<path id="Artboard_1" d="M398.5,398.5c-82,82-215,82-297,0s-82-215,0-297s215-82,297,0S480.5,316.5,398.5,398.5z M370.2,129.8
	c-66.4-66.4-174-66.4-240.4,0s-66.4,174,0,240.4s174,66.4,240.4,0c0,0,0,0,0,0C436.6,303.8,436.6,196.2,370.2,129.8L370.2,129.8z
	 M389,265H262.7c-1.8,3.1-5.1,5-8.7,5h-10c-3.6,0-6.9-1.9-8.7-5H229c-5.5,0-10-4.5-10-10v-10c0-5.5,4.5-10,10-10h5v-85
	c0-5.5,4.5-10,10-10h10c5.5,0,10,4.5,10,10v85h125c5.5,0,10,4.5,10,10v10C399,260.5,394.5,265,389,265z"/>
</svg>
