<?xml version="1.0" encoding="utf-8"?>
<!-- Generator: Adobe Illustrator 24.1.0, SVG Export Plug-In . SVG Version: 6.00 Build 0)  -->
<svg version="1.1" id="Layer_1" xmlns="http://www.w3.org/2000/svg" xmlns:xlink="http://www.w3.org/1999/xlink" x="0px" y="0px"
	 viewBox="0 0 500 500" style="enable-background:new 0 0 500 500;" xml:space="preserve">
<path id="Artboard_1" d="M250,292c-23.2,0-42-18.8-42-42s18.8-42,42-42s42,18.8,42,42S273.2,292,250,292z M250,152
	c-23.2,0-42-18.8-42-42s18.8-42,42-42s42,18.8,42,42l0,0C292,133.2,273.2,152,250,152z M250,348c23.2,0,42,18.8,42,42
	s-18.8,42-42,42s-42-18.8-42-42l0,0C208,366.8,226.8,348,250,348z"/>
</svg>
