<?xml version="1.0" encoding="utf-8"?>
<!-- Generator: Adobe Illustrator 24.1.0, SVG Export Plug-In . SVG Version: 6.00 Build 0)  -->
<svg version="1.1" id="Layer_1" xmlns="http://www.w3.org/2000/svg" xmlns:xlink="http://www.w3.org/1999/xlink" x="0px" y="0px"
	 viewBox="0 0 500 500" style="enable-background:new 0 0 500 500;" xml:space="preserve">
<path id="Artboard_1" d="M208,250c0-23.2,18.8-42,42-42s42,18.8,42,42s-18.8,42-42,42S208,273.2,208,250z M348,250
	c0-23.2,18.8-42,42-42s42,18.8,42,42s-18.8,42-42,42S348,273.2,348,250z M152,250c0,23.2-18.8,42-42,42s-42-18.8-42-42
	s18.8-42,42-42S152,226.8,152,250L152,250z"/>
</svg>
