<?xml version="1.0" encoding="utf-8"?>
<!-- Generator: Adobe Illustrator 25.2.3, SVG Export Plug-In . SVG Version: 6.00 Build 0)  -->
<svg version="1.1" id="Layer_1" xmlns="http://www.w3.org/2000/svg" xmlns:xlink="http://www.w3.org/1999/xlink" x="0px" y="0px"
	 viewBox="0 0 500 500" style="enable-background:new 0 0 500 500;" xml:space="preserve">
<path id="Artboard_1" d="M302.7,250l102.4,102.7c3.9,3.9,3.9,10.2,0,14.2l-21.2,21.2c-3.9,3.9-10.2,3.9-14.1,0c0,0,0,0,0,0L232,250
	l137.8-138.1c3.9-3.9,10.2-3.9,14.1,0c0,0,0,0,0,0l21.2,21.2c3.9,3.9,3.9,10.2,0,14.2L302.7,250z M162.7,250l102.4,102.7
	c3.9,3.9,3.9,10.2,0,14.2l-21.2,21.2c-3.9,3.9-10.2,3.9-14.1,0c0,0,0,0,0,0L92,250l137.8-138.1c3.9-3.9,10.2-3.9,14.1,0c0,0,0,0,0,0
	l21.2,21.2c3.9,3.9,3.9,10.2,0,14.2L162.7,250z"/>
</svg>
