<svg xmlns="http://www.w3.org/2000/svg" width="500" height="500" viewBox="0 0 500 500">
  <defs>
    <style>
      .cls-1 {
        fill-rule: evenodd;
      }
    </style>
  </defs>
  <g id="Artboard_1" data-name="Artboard 1">
    <g id="Next">
      <g id="Ready">
        <path id="chevron_down_thin" data-name="chevron down thin" class="cls-1" d="M197.374,250.017L94.934,147.35a10.029,10.029,0,0,1,0-14.161l21.195-21.241a9.974,9.974,0,0,1,14.129,0L268.022,250.017,130.258,388.087a9.976,9.976,0,0,1-14.129,0L94.934,366.845a10.029,10.029,0,0,1,0-14.161Zm140,0L234.934,147.35a10.031,10.031,0,0,1,0-14.161l21.2-21.241a9.974,9.974,0,0,1,14.129,0L408.022,250.017,270.258,388.087a9.976,9.976,0,0,1-14.129,0l-21.2-21.242a10.031,10.031,0,0,1,0-14.161Z"/>
      </g>
    </g>
  </g>
</svg>
