<?xml version="1.0" encoding="utf-8"?>
<!-- Generator: Adobe Illustrator 25.2.3, SVG Export Plug-In . SVG Version: 6.00 Build 0)  -->
<svg version="1.1" id="Layer_1" xmlns="http://www.w3.org/2000/svg" xmlns:xlink="http://www.w3.org/1999/xlink" x="0px" y="0px"
	 viewBox="0 0 500 500" style="enable-background:new 0 0 500 500;" xml:space="preserve">
<path id="Artboard_1" d="M250,197.4L352.7,94.9c3.9-3.9,10.2-3.9,14.2,0l21.2,21.2c3.9,3.9,3.9,10.2,0,14.1c0,0,0,0,0,0L250,268
	L111.9,130.2c-3.9-3.9-3.9-10.2,0-14.1c0,0,0,0,0,0l21.2-21.2c3.9-3.9,10.2-3.9,14.2,0L250,197.4z M250,337.4l102.7-102.4
	c3.9-3.9,10.2-3.9,14.2,0l21.2,21.2c3.9,3.9,3.9,10.2,0,14.1c0,0,0,0,0,0L250,408L111.9,270.2c-3.9-3.9-3.9-10.2,0-14.1c0,0,0,0,0,0
	l21.2-21.2c3.9-3.9,10.2-3.9,14.2,0L250,337.4z"/>
</svg>
