<?xml version="1.0" encoding="utf-8"?>
<!-- Generator: Adobe Illustrator 25.2.3, SVG Export Plug-In . SVG Version: 6.00 Build 0)  -->
<svg version="1.1" id="Layer_1" xmlns="http://www.w3.org/2000/svg" xmlns:xlink="http://www.w3.org/1999/xlink" x="0px" y="0px"
	 viewBox="0 0 500 500" style="enable-background:new 0 0 500 500;" xml:space="preserve">
<path id="Artboard_1" d="M250,302.6L147.4,405.1c-3.9,3.9-10.2,3.9-14.2,0L112,383.9c-3.9-3.9-3.9-10.2,0-14.1c0,0,0,0,0,0L250,232
	l138.1,137.8c3.9,3.9,3.9,10.2,0,14.1c0,0,0,0,0,0l-21.2,21.2c-3.9,3.9-10.2,3.9-14.2,0L250,302.6z M250,162.6L147.4,265.1
	c-3.9,3.9-10.2,3.9-14.2,0L112,243.9c-3.9-3.9-3.9-10.2,0-14.1c0,0,0,0,0,0L250,92l138.1,137.8c3.9,3.9,3.9,10.2,0,14.1c0,0,0,0,0,0
	l-21.2,21.2c-3.9,3.9-10.2,3.9-14.2,0L250,162.6z"/>
</svg>
