<?xml version="1.0" encoding="utf-8"?>
<!-- Generator: Adobe Illustrator 23.0.4, SVG Export Plug-In . SVG Version: 6.00 Build 0)  -->
<svg version="1.1" id="Layer_1" xmlns="http://www.w3.org/2000/svg" xmlns:xlink="http://www.w3.org/1999/xlink" x="0px" y="0px"
	 viewBox="0 0 500 500" style="enable-background:new 0 0 500 500;" xml:space="preserve">
<title>download</title>
<g id="Artboard_1">
	<g id="Next">
		<g id="Ready">
			<g id="Download">
				<path d="M450,340h-20c-5.5,0-10,4.5-10,10v70H80v-70c0-5.5-4.5-10-10-10H50c-5.5,0-10,4.5-10,10v100c0,5.5,4.5,10,10,10h400
					c5.5,0,10-4.5,10-10V350C460,344.5,455.5,340,450,340z M250.1,380.4L391.5,239c3.9-3.9,3.9-10.2,0-14.1c0,0,0,0,0,0l-14.1-14.1
					c-3.9-3.9-10.2-3.9-14.1,0l-93.1,93.1V50.5c0-5.5-4.5-10-10-10h-20c-5.5,0-10,4.5-10,10v253.3L137,210.7
					c-3.9-3.9-10.2-3.9-14.1,0l-14.2,14.1c-3.9,3.9-3.9,10.2,0,14.1c0,0,0,0,0,0L250.1,380.4z"/>
			</g>
		</g>
	</g>
</g>
</svg>
