<?xml version="1.0" encoding="utf-8"?>
<!-- Generator: Adobe Illustrator 24.1.0, SVG Export Plug-In . SVG Version: 6.00 Build 0)  -->
<svg version="1.1" id="Layer_1" xmlns="http://www.w3.org/2000/svg" xmlns:xlink="http://www.w3.org/1999/xlink" x="0px" y="0px"
	 viewBox="0 0 500 500" style="enable-background:new 0 0 500 500;" xml:space="preserve">
<path id="Artboard_1" d="M450,240h-10c-5.5,0-10-4.5-10-10v-80c0-5.5,4.5-10,10-10h10c5.5,0,10,4.5,10,10v80
	C460,235.5,455.5,240,450,240z M450,100h-10c-5.5,0-10-4.5-10-10V70h-20c-5.5,0-10-4.5-10-10V50c0-5.5,4.5-10,10-10h50v50
	C460,95.5,455.5,100,450,100z M340,340h-10v120H40V170h100v-20c0-5.5,4.5-10,10-10h10c5.5,0,10,4.5,10,10v20h160v140h10
	c5.5,0,10,4.5,10,10v10C350,335.5,345.5,340,340,340z M300,200H70v230h230V200z M105,300h65v-65c0-5.5,4.5-10,10-10h10
	c5.5,0,10,4.5,10,10v65h65c5.5,0,10,4.5,10,10v10c0,5.5-4.5,10-10,10h-65v65c0,5.5-4.5,10-10,10h-10c-5.5,0-10-4.5-10-10v-65h-65
	c-5.5,0-10-4.5-10-10v-10C95,304.5,99.5,300,105,300z M340,70h-80c-5.5,0-10-4.5-10-10V50c0-5.5,4.5-10,10-10h80c5.5,0,10,4.5,10,10
	v10C350,65.5,345.5,70,340,70z M190,70h-20v20c0,5.5-4.5,10-10,10h-10c-5.5,0-10-4.5-10-10V40h50c5.5,0,10,4.5,10,10v10
	C200,65.5,195.5,70,190,70z M410,310h20v-20c0-5.5,4.5-10,10-10h10c5.5,0,10,4.5,10,10v50h-50c-5.5,0-10-4.5-10-10v-10
	C400,314.5,404.5,310,410,310z"/>
</svg>
