<svg xmlns="http://www.w3.org/2000/svg" viewBox="0 0 500 500"><defs><style>.cls-1{isolation:isolate;}</style></defs><title>echx-circle</title><g id="Artboard_1" data-name="Artboard 1" class="cls-1"><g id="Next"><g id="Ready"><g id="echx-circle"><path d="M398.49,101.51c-82-82-215-82-297,0s-82,215,0,297,215,82,297,0S480.5,183.52,398.49,101.51Zm-28.28,268.7a170,170,0,1,1,0-240.42A170,170,0,0,1,370.21,370.21Zm-3.54-215.67-21.21-21.21a10,10,0,0,0-14.14,0L250,214.64l-81.32-81.31a10,10,0,0,0-14.14,0l-21.21,21.21a10,10,0,0,0,0,14.14L214.64,250l-81.31,81.32a10,10,0,0,0,0,14.14l21.21,21.21a10,10,0,0,0,14.14,0L250,285.36l81.32,81.31a10,10,0,0,0,14.14,0l21.21-21.21a10,10,0,0,0,0-14.14L285.36,250l81.31-81.32A10,10,0,0,0,366.67,154.54Z"/></g></g></g></g></svg>