<svg xmlns="http://www.w3.org/2000/svg" viewBox="0 0 500 500"><defs><style>.cls-1{isolation:isolate;}</style></defs><title>echx</title><g id="Artboard_1" data-name="Artboard 1" class="cls-1"><g id="Next"><g id="Ready"><g id="echx"><path d="M285.36,250,387.89,147.47a10,10,0,0,0,0-14.14l-21.22-21.22a10,10,0,0,0-14.14,0L250,214.64,147.47,112.11a10,10,0,0,0-14.14,0l-21.22,21.22a10,10,0,0,0,0,14.14L214.64,250,112.11,352.53a10,10,0,0,0,0,14.14l21.22,21.22a10,10,0,0,0,14.14,0L250,285.36,352.53,387.89a10,10,0,0,0,14.14,0l21.22-21.22a10,10,0,0,0,0-14.14Z"/></g></g></g></g></svg>