<svg xmlns="http://www.w3.org/2000/svg" viewBox="0 0 500 500"><defs><style>.cls-1{isolation:isolate;}</style></defs><title>eye-slash</title><g id="Artboard_1" data-name="Artboard 1" class="cls-1"><g id="Next"><g id="Ready"><g id="Eye_Slash" data-name="Eye Slash"><path d="M249.91,346.62c-50.72.2-92.81-41.11-93.32-91.68,0-.55,0-1.09,0-1.64,0-.23,0-.45,0-.67v-.54c0-.59,0-1.27,0-1.51v-.22c0-.69,0-1.39,0-2.08,0-.08,0-.15,0-.23A91.92,91.92,0,0,1,165.77,207L125.5,166.71q-5.28,3.69-10.48,7.52c-30.66,22.62-68.29,60.53-68.29,60.53a24.22,24.22,0,0,0-.88,32.68s3.83,4.3,13.73,14.33C87.9,310.46,119,335.71,154.64,355c27.64,15,56.79,25.34,88.57,26.81,2.24.11,4.47.15,6.7.16s4.45-.05,6.7-.16c23.83-1.1,46.17-7.2,67.51-16.5l-29.88-29.89A92,92,0,0,1,249.91,346.62Zm8.78-46.72L207.9,249.11a38.53,38.53,0,0,1-9.66-2.32q-.06,1.26-.06,2.55c0,28.63,23.08,51.39,52,51.29A53.26,53.26,0,0,0,258.69,299.9Zm194.39-65.14s-37.63-37.91-68.28-60.53c-25.93-19.13-53.34-35.65-84.06-46.19-16.71-5.74-33.61-9-50.83-9.08s-34.12,3.34-50.83,9.08a255.14,255.14,0,0,0-34.8,15L140.4,119.19a10,10,0,0,0-14.14,0l-7.07,7.07a10,10,0,0,0,0,14.14L359.6,380.81a10,10,0,0,0,14.14,0l7.07-7.07a10,10,0,0,0,0-14.14l-16.05-16.06c27.62-17.43,52.47-38.46,75.48-61.77,9.89-10,13.73-14.33,13.73-14.33A24.23,24.23,0,0,0,453.08,234.76ZM343.23,252.63c0,.22,0,.45,0,.67,0,.55,0,1.09,0,1.64a91.44,91.44,0,0,1-16.16,50.91l-31.79-31.79a50.89,50.89,0,0,0,6.36-24.77c-.05-28.63-23.12-51.38-52-51.29-.77,0-1.53,0-2.29.06a37.74,37.74,0,0,1,2.59,13.72,37.17,37.17,0,0,1-2.76,14.15L194,172.83a93.78,93.78,0,0,1,55.36-18.58h1c51.77.46,93.33,42.46,92.81,93.8,0,.08,0,.15,0,.23,0,.69,0,1.39,0,2.08v.22c0,.24,0,.92,0,1.51C343.23,252.09,343.23,252.09,343.23,252.63Z"/></g></g></g></g></svg>