<?xml version="1.0" encoding="utf-8"?>
<!-- Generator: Adobe Illustrator 25.4.1, SVG Export Plug-In . SVG Version: 6.00 Build 0)  -->
<svg version="1.1" id="Layer_1" xmlns="http://www.w3.org/2000/svg" xmlns:xlink="http://www.w3.org/1999/xlink" x="0px" y="0px"
	 viewBox="0 0 500 500" style="enable-background:new 0 0 500 500;" xml:space="preserve">
<path id="Artboard_1" d="M205.8,455.2c-22.9-13.5-39.3-37.3-40.2-65.3c-1.4-52.2,35.1-77.9,56.6-112.9
	c30.9-50.4,22.5-81.6,22.5-81.6s25.7,14.5,40.7,68.1c4.4,15.1,5.8,31,4.2,46.7c-2.3,37.8-18.7,71.8-18.7,71.8s28.5-6.1,36.5-57.8
	c13.1,13.5,25.3,33.1,26.7,53.6c2.3,35.5-18.7,68.1-50.5,82.1c55.2-12.6,94.5-59.2,108-93.3c17.3-42.9,12.6-81.2,9.8-114.3
	c-3.7-45.3,12.2-78.8,12.2-78.8s-30.4,8.9-52.9,45.7c-10.3,16.8-14.5,41.5-14.5,41.5s2.3-21.9-12.2-62
	c-14.5-39.2-27.6-53.2-35.5-82.1C288.2,77.8,311.1,40,311.1,40s-90.7,16.8-131.9,95.6c-36.5,70-21.5,112-21.5,112
	s-15.4-14.5-23.4-34.5c-4.8-12.2-6.9-25.2-6.1-38.3c0,0-64.6,70.9-33.2,160C116,397.4,156.7,438.4,205.8,455.2z"/>
</svg>
