<?xml version="1.0" encoding="utf-8"?>
<!-- Generator: Adobe Illustrator 23.0.4, SVG Export Plug-In . SVG Version: 6.00 Build 0)  -->
<svg version="1.1" id="Layer_1" xmlns="http://www.w3.org/2000/svg" xmlns:xlink="http://www.w3.org/1999/xlink" x="0px" y="0px"
	 viewBox="0 0 500 500" style="enable-background:new 0 0 500 500;" xml:space="preserve">
<title>flag-pointed-angle</title>
<path id="Artboard_1" d="M143,253.8l229.9-118.4l-256.4-31.7l-0.4-2.2c-1-5.4-6.1-9.1-11.6-8.1c0,0,0,0,0,0l-9.8,1.7
	c-5.4,1-9.1,6.1-8.1,11.6c0,0,0,0,0,0l59,334.8c1,5.4,6.1,9.1,11.6,8.1c0,0,0,0,0,0l9.9-1.7c5.4-1,9.1-6.1,8.1-11.6L143,253.8z"/>
</svg>
