<?xml version="1.0" encoding="utf-8"?>
<!-- Generator: Adobe Illustrator 25.4.1, SVG Export Plug-In . SVG Version: 6.00 Build 0)  -->
<svg version="1.1" id="Layer_1" xmlns="http://www.w3.org/2000/svg" xmlns:xlink="http://www.w3.org/1999/xlink" x="0px" y="0px"
	 viewBox="0 0 500 500" style="enable-background:new 0 0 500 500;" xml:space="preserve">
<path id="Artboard_1" d="M274.4,219.3l45.1-78.6l0.5-0.7c2.7-4.4,5.9-8.5,9.6-12.1c4.3-4.6,9.3-8.5,14.8-11.6
	c16.8-9.7,36.9-12,55.4-6.1c10.5,3.3,17.9,12.6,18.4,23.1c0.4,6.1,2.2,12.1,5.3,17.4c3,5.4,7.2,9.9,12.3,13.3
	c8.7,5.6,12.9,16.7,10.6,27.5c-4.2,19-16.1,35.3-32.9,45.1c-5.4,3.2-11.3,5.6-17.4,7.1c-5,1.4-10.1,2.1-15.2,2.2H380
	c-1.5,0-2.9,0-4.3-0.1l-85.9,0.1c-0.4-3.4-1.3-6.7-2.6-9.9l36.1-4.4c0.6-0.1,1.3-0.1,2-0.2c0.1,0,0.1,0,0.2,0
	c2.3-0.3,4.5-0.9,6.6-1.6c2.7-0.9,5.3-2.1,7.8-3.5c8-4.6,13.7-11.3,16.3-18.3c1.6-4.3,0.4-8.5-3.4-10.3c-3.5-1.7-5.5-5.3-5.2-9.2
	c0.3-4.2-2.7-7.4-7.1-8.1c-7.3-1.2-16,0.4-24,5.1c-2.5,1.4-4.8,3.1-6.9,5c-1.7,1.5-3.3,3.2-4.7,4.9c-0.1,0.2-0.2,0.3-0.3,0.4
	l-22.8,30.6C279.6,223.9,277.1,221.4,274.4,219.3z M265.4,224.6c-0.1-0.1-0.2-0.2-0.3-0.2c-2-1.2-4.1-2.2-6.4-2.8
	c-2.9-0.9-5.8-1.4-8.8-1.4c-3,0-6,0.5-8.9,1.4c-2.2,0.6-4.4,1.6-6.4,2.8c-0.1,0-0.2,0.1-0.3,0.2c-2,1.2-3.9,2.6-5.6,4.2
	c-4.4,4.1-7.5,9.5-8.8,15.4c-0.6,2.3-0.9,4.6-0.9,7v0.3c0,2.4,0.3,4.7,0.9,7c1.4,5.8,4.4,11.2,8.8,15.3c1.7,1.6,3.6,3.1,5.7,4.2
	c0.1,0.1,0.2,0.2,0.3,0.2c2,1.2,4.1,2.1,6.4,2.7c2.9,0.9,5.8,1.4,8.8,1.4c3,0,6-0.5,8.9-1.4c2.2-0.6,4.4-1.5,6.4-2.8
	c0.1,0,0.3-0.1,0.3-0.2c2-1.2,3.9-2.6,5.6-4.2c4.4-4.1,7.4-9.4,8.7-15.2c0.6-2.3,0.9-4.7,0.9-7.1v-0.2c0-2.4-0.3-4.8-0.9-7.1
	c-1.3-5.8-4.4-11.1-8.7-15.2C269.4,227.2,267.5,225.8,265.4,224.6L265.4,224.6z M446.3,311.2c-4.2-19-16.1-35.4-33-45.2
	c-9.9-5.6-21.1-8.8-32.5-9.3h-91.1c-0.5,3.4-1.3,6.7-2.6,9.9l37.8,4.5c0.2,0,0.3,0,0.5,0.1c2.2,0.3,4.4,0.9,6.6,1.6
	c2.7,0.9,5.3,2.1,7.8,3.5c8,4.6,13.7,11.4,16.4,18.4c1.6,4.2,0.4,8.5-3.4,10.3c-1.7,0.8-3.1,2.1-4,3.8c-1,1.6-1.4,3.5-1.2,5.4
	c0.4,4.2-2.7,7.4-7.2,8.1c-7.3,1.2-16-0.4-23.9-5.1c-2.5-1.4-4.8-3.1-6.9-5c-1.7-1.5-3.3-3.2-4.7-5c-0.1,0-0.1-0.1-0.1-0.2
	c-0.4-0.5-0.8-1.1-1.2-1.6l-21.8-29.2c-2.1,2.7-4.5,5.2-7.2,7.3l42.9,74.7c0.7,1.2,1.4,2.5,2.2,3.8l0.4,0.7
	c2.7,4.4,5.8,8.5,9.5,12.1c4.4,4.6,9.3,8.5,14.8,11.6c16.7,9.7,36.8,12,55.3,6.1c10.5-3.3,17.9-12.6,18.4-23
	c0.4-6.1,2.2-12,5.3-17.3c3-5.4,7.2-9.9,12.3-13.3C444.4,333.1,448.7,322.1,446.3,311.2z M310.8,368l-0.3-0.8l-45.1-78.5
	c-3.2,1.3-6.5,2.2-9.9,2.6l15,35.1c0.1,0.2,0.1,0.3,0.2,0.5c0.8,2.1,1.5,4.3,1.9,6.5c0.6,2.8,0.9,5.7,0.9,8.5
	c0,9.3-2.9,17.6-7.6,23.4c-2.9,3.5-7.1,4.6-10.5,2.2c-3.2-2.2-7.3-2.2-10.5,0c-3.4,2.4-7.7,1.3-10.5-2.2c-4.7-5.8-7.6-14.1-7.6-23.4
	c0-2.9,0.3-5.7,0.9-8.5c0.4-2.3,1.1-4.5,1.9-6.6c0-0.1,0-0.1,0.1-0.2c0.3-0.6,0.5-1.2,0.8-1.8l14.3-33.6c-3.4-0.4-6.7-1.3-9.9-2.6
	l-42.8,74.7c-0.8,1.2-1.5,2.5-2.2,3.8l-0.4,0.7c-2.5,4.5-4.4,9.3-5.7,14.3c-1.7,6.1-2.6,12.4-2.6,18.8c0,19.4,8.1,38,22.3,51.2
	c8.2,7.5,19.8,9.3,29.1,4.5c11.1-5.4,24.1-5.4,35.2,0.1c9.2,4.8,20.9,3,29-4.5c14.3-13.2,22.5-31.8,22.5-51.3
	c0-6.3-0.8-12.6-2.6-18.7C315.2,377.4,313.3,372.6,310.8,368z M188.9,134.2L188.9,134.2l0.5,0.8c0.9,1.6,1.6,2.9,2.3,4l42.9,74.9
	c3.2-1.3,6.5-2.2,10-2.6l-14.3-33.6c-0.3-0.6-0.5-1.2-0.8-1.8c0,0-0.1-0.1-0.1-0.2c-0.8-2.1-1.5-4.3-1.9-6.6
	c-0.6-2.8-0.9-5.7-0.9-8.5c0-9.2,2.9-17.6,7.6-23.4c2.9-3.5,7.1-4.6,10.5-2.2c3.2,2.2,7.3,2.2,10.5,0c3.4-2.4,7.7-1.4,10.6,2.2
	c4.7,5.8,7.6,14.1,7.6,23.4c0,2.9-0.3,5.7-0.9,8.5c-0.5,2.2-1.1,4.4-1.9,6.5c-0.1,0.2-0.1,0.3-0.2,0.5l-15,35.1
	c3.4,0.4,6.7,1.3,9.9,2.6l45-78.2c0.2-0.3,0.3-0.6,0.5-0.9c2.5-4.6,4.4-9.5,5.8-14.5c1.7-6.1,2.6-12.3,2.6-18.7
	c0-19.5-8.2-38.1-22.5-51.3c-8.2-7.4-19.8-9.3-29-4.5c-10.3,5.3-25.1,5.3-35.2,0c-9.2-4.8-20.9-2.9-29,4.6
	c-14.3,13.2-22.4,31.8-22.4,51.2c0,6.3,0.9,12.6,2.6,18.7C184.7,125.1,186.5,129.8,188.9,134.2z M225.5,283.4
	c-2.7-2.1-5.2-4.6-7.2-7.3l-21.8,29.2c-0.4,0.5-0.8,1.1-1.2,1.6c0,0.1,0,0.1-0.1,0.2c-1.4,1.8-3,3.5-4.7,5c-2.1,1.9-4.4,3.6-6.9,5
	c-8,4.6-16.6,6.2-23.9,5.1c-4.5-0.7-7.5-3.9-7.2-8.1c0.3-3.8-1.8-7.5-5.3-9.1c-3.8-1.8-5-6-3.4-10.3c2.6-7,8.4-13.7,16.4-18.4
	c2.5-1.4,5.1-2.6,7.8-3.5c2.1-0.7,4.3-1.3,6.6-1.6c0.2,0,0.3-0.1,0.5-0.1l37.8-4.5c-1.3-3.2-2.2-6.5-2.6-9.9l-89.9-0.1h-1
	c-5.2,0.2-10.3,0.9-15.3,2.2c-25.4,6.5-44.9,26.8-50.3,52.4c-2.3,10.8,1.9,21.9,10.7,27.5c10.2,7,16.7,18.3,17.6,30.6
	c0.5,10.4,7.9,19.7,18.4,23.1c18.5,5.8,38.5,3.6,55.3-6.1c5.4-3.1,10.4-7,14.8-11.6c3.5-3.5,6.6-7.4,9.3-11.7V363l0.5-0.8
	c0.8-1.4,1.6-2.8,2.3-4L225.5,283.4z M86.5,236.7c5.4,3.1,11.3,5.5,17.4,7c4.8,1.3,9.7,2.1,14.7,2.2h1c1.6,0.1,3.2,0.1,4.6,0l86,0.1
	c0.4-3.4,1.3-6.8,2.6-9.9l-36.1-4.4c-0.6-0.1-1.3-0.1-1.9-0.2c-0.1,0-0.1,0-0.2,0c-2.3-0.3-4.5-0.9-6.6-1.6
	c-2.7-0.9-5.3-2.1-7.8-3.5c-8-4.6-13.7-11.3-16.3-18.3c-1.6-4.3-0.4-8.5,3.4-10.3c3.5-1.7,5.5-5.3,5.3-9.2c-0.4-4.2,2.7-7.4,7.1-8.1
	c7.3-1.2,16,0.4,24,5.1c2.5,1.4,4.8,3.1,6.9,5c1.7,1.5,3.3,3.2,4.7,4.9c0.1,0.2,0.2,0.3,0.3,0.4l22.8,30.6c2.1-2.7,4.5-5.2,7.2-7.3
	L180.5,141c-0.1-0.2-0.3-0.5-0.5-0.8c-2.8-4.4-6-8.5-9.6-12.3c-4.4-4.5-9.4-8.4-14.8-11.6c-16.8-9.8-36.9-11.9-55.4-6
	c-10.5,3.3-17.9,12.6-18.4,23c-0.9,12.4-7.4,23.7-17.6,30.7c-8.7,5.6-12.9,16.7-10.6,27.5C57.8,210.5,69.7,226.9,86.5,236.7z"/>
</svg>
