<?xml version="1.0" encoding="utf-8"?>
<!-- Generator: Adobe Illustrator 25.4.1, SVG Export Plug-In . SVG Version: 6.00 Build 0)  -->
<svg version="1.1" id="Layer_1" xmlns="http://www.w3.org/2000/svg" xmlns:xlink="http://www.w3.org/1999/xlink" x="0px" y="0px"
	 viewBox="0 0 500 500" style="enable-background:new 0 0 500 500;" xml:space="preserve">
<path id="Artboard_1" d="M370.2,249c37.2-21.4,60.1-61.1,60.1-104c-37.2-21.5-83-21.5-120.2,0c0-42.9-22.9-82.6-60.1-104
	c-37.2,21.4-60.1,61.1-60.1,104c-37.2-21.5-83-21.5-120.2,0c0,42.9,22.9,82.6,60.1,104c-37.2,21.4-60.1,61.1-60.1,104
	c37.2,21.5,83,21.5,120.2,0c0,42.9,22.9,82.6,60.1,104c37.2-21.4,60.1-61.1,60.1-104c37.2,21.5,83,21.5,120.2,0
	C430.2,310.1,407.3,270.5,370.2,249z M318.9,258.3c-4.2,32.3-31.9,58.2-64.7,60.1c-38.5,2-71.4-27.6-73.4-66.1c-0.2-4-0.1-8,0.4-12
	c4.2-32.3,31.9-58.2,64.7-60.1c38-2.6,70.9,26.2,73.5,64.2C319.6,249,319.5,253.7,318.9,258.3L318.9,258.3z"/>
</svg>
