<?xml version="1.0" encoding="utf-8"?>
<!-- Generator: Adobe Illustrator 25.4.1, SVG Export Plug-In . SVG Version: 6.00 Build 0)  -->
<svg version="1.1" id="Layer_1" xmlns="http://www.w3.org/2000/svg" xmlns:xlink="http://www.w3.org/1999/xlink" x="0px" y="0px"
	 viewBox="0 0 500 500" style="enable-background:new 0 0 500 500;" xml:space="preserve">
<path id="Artboard_1" d="M190.7,142.4c-16.5-50,8.2-101,57.7-101s74.2,51,57.7,101c-9.5,28.9-29.8,51.4-44.5,67.2
	c5.9-9.7,19.7-43.7,19.7-58c0-20-11-19.2-33,2.5c-22-21.6-33-22.5-33-2.5c0,14.3,13.9,48.3,19.7,58
	C220.6,193.8,200.4,171.6,190.7,142.4z M248.5,293.7c-23.2,0.1-42.1-18.7-42.2-41.9s18.7-42.1,41.9-42.2
	c23.2-0.1,42.1,18.7,42.2,41.9c0,0.1,0,0.1,0,0.2C290.4,274.9,271.6,293.7,248.5,293.7z M313.8,146.9c34.9-39.3,91.2-43.3,116-0.3
	s-6.9,90.1-58.3,100.7c-29.7,6.1-59.2-0.2-80.2-5.1c11.3,0.3,47.6-4.7,59.9-11.8c17.2-10,11-19.2-18.6-27.5
	c7.7-29.9,2.9-39.9-14.4-29.9c-12.3,7.1-34.7,36.2-40.2,46.2C284.4,198.5,293.5,169.8,313.8,146.9L313.8,146.9z M371.5,256.1
	c51.4,10.6,83,57.7,58.3,100.7s-81.1,39-116-0.3c-20.1-22.7-29.4-51.6-35.7-72.3c5.4,10,27.8,39,40.2,46.2c17.2,10,22,0,14.4-29.9
	c29.7-8.3,35.9-17.5,18.6-27.5c-12.3-7.1-48.6-12.1-59.9-11.8C312.3,256.3,341.6,249.9,371.5,256.1z M306.2,360.9
	c16.5,50-8.2,101-57.7,101s-74.2-51-57.7-101c9.5-28.9,29.8-51.4,44.5-67.2c-5.9,9.7-19.7,43.7-19.7,58c0,20,11,19.2,33-2.5
	c22,21.6,33,22.5,33,2.5c0-14.3-13.9-48.3-19.7-58C276.4,309.5,296.6,331.8,306.2,360.9z M183.1,356.5c-34.9,39.3-91.2,43.3-116,0.3
	s6.9-90.1,58.3-100.7c29.7-6.1,59.2,0.2,80.2,5.1c-11.3-0.3-47.6,4.7-59.9,11.8c-17.2,10-11,19.2,18.6,27.5
	c-7.7,29.9-2.9,39.9,14.4,29.9c12.3-7.1,34.7-36.2,40.2-46.2C212.5,304.9,203.4,333.6,183.1,356.5z M125.4,247.3
	c-51.4-10.6-83-57.7-58.3-100.7s81.1-39,116,0.3c20.1,22.7,29.4,51.6,35.7,72.3c-5.4-10-27.8-39-40.2-46.2c-17.2-10-22,0-14.4,29.9
	c-29.7,8.3-35.9,17.5-18.6,27.5c12.3,7.1,48.6,12.1,59.9,11.8C184.6,247,155.3,253.5,125.4,247.3z"/>
</svg>
