<?xml version="1.0" encoding="utf-8"?>
<!-- Generator: Adobe Illustrator 24.3.0, SVG Export Plug-In . SVG Version: 6.00 Build 0)  -->
<svg version="1.1" id="Layer_1" xmlns="http://www.w3.org/2000/svg" xmlns:xlink="http://www.w3.org/1999/xlink" x="0px" y="0px"
	 viewBox="0 0 500 500" style="enable-background:new 0 0 500 500;" xml:space="preserve">
<path id="Artboard_1" d="M40,360h420v65H40V360z M190,265h270v65H190V265z M190,170h270v65H190V170z M40,75h420v65H40V75z
	 M163,246.4L47.8,149.7c-2.3-1.3-5.2-0.5-6.6,1.8c-0.4,0.7-0.6,1.6-0.6,2.4v193.4c0,2.7,2.1,4.8,4.8,4.8c0.8,0,1.7-0.2,2.4-0.6
	L163,254.7c2.3-1.3,3.1-4.3,1.7-6.6C164.3,247.4,163.7,246.8,163,246.4z"/>
</svg>
