<?xml version="1.0" encoding="utf-8"?>
<!-- Generator: Adobe Illustrator 25.4.1, SVG Export Plug-In . SVG Version: 6.00 Build 0)  -->
<svg version="1.1" id="Layer_1" xmlns="http://www.w3.org/2000/svg" xmlns:xlink="http://www.w3.org/1999/xlink" x="0px" y="0px"
	 viewBox="0 0 500 500" style="enable-background:new 0 0 500 500;" xml:space="preserve">
<path id="Artboard_1" d="M250,460c-116,0-210-94-210-210S134,40,250,40s210,94,210,210S366,460,250,460z M250,80
	c-93.9,0-170,76.1-170,170s76.1,170,170,170s170-76.1,170-170S343.9,80,250,80z M275.8,373c-20.2,12.5-46.8,6.8-46.8-16.4V240.3
	c0-17.4-11.2-19.7-24.9-13.6c-2.8,1.3-6.2,0.1-7.5-2.8c-0.9-1.9-0.7-4.1,0.6-5.8c7.6-10,16.9-18.5,27.4-25.3
	c20.2-12.5,46.8-6.8,46.8,16.4v116.2c0,17.4,11.2,19.7,24.9,13.6c2.8-1.3,6.2-0.1,7.5,2.8c0.9,1.9,0.7,4.1-0.6,5.8
	C295.6,357.6,286.3,366.1,275.8,373z M250.2,162.6c-11.7,0-21.2-9.5-21.2-21.2c0-11.7,9.5-21.2,21.2-21.2s21.2,9.5,21.2,21.2
	c0,0,0,0,0,0C271.4,153.1,261.9,162.6,250.2,162.6C250.2,162.6,250.2,162.6,250.2,162.6L250.2,162.6z"/>
</svg>
