<?xml version="1.0" encoding="utf-8"?>
<!-- Generator: Adobe Illustrator 24.3.0, SVG Export Plug-In . SVG Version: 6.00 Build 0)  -->
<svg version="1.1" id="Layer_1" xmlns="http://www.w3.org/2000/svg" xmlns:xlink="http://www.w3.org/1999/xlink" x="0px" y="0px"
	 viewBox="0 0 500 500" style="enable-background:new 0 0 500 500;" xml:space="preserve">
<path id="Artboard_1" d="M225.3,140.2l-2.3,10.2c3.6,0.4,7.1,1.1,10.6,1.9c3.9,0.8,7.7,2,11.4,3.5c2.8,1.2,4.6,2.6,5.5,4.2
	c0.9,1.7,1.4,3.5,1.3,5.4c0,0.9-0.1,1.9-0.2,2.8c-0.1,0.9-0.3,1.9-0.5,2.8L214,332.3c-0.6,3.4-2.1,6.6-4.2,9.2
	c-2.5,2.8-5.6,4.9-9.2,6c-2.3,0.8-6.1,1.5-11.5,1.9c-5.4,0.4-9.5,0.7-12.4,0.9l-2.3,10.2h99.4l2.3-10.2c-2.6-0.2-6.5-0.8-11.8-1.8
	c-5.3-1-8.7-1.8-10.2-2.6c-2.2-0.9-4.2-2.4-5.6-4.3c-1.1-1.8-1.6-3.9-1.6-6.1c0-0.8,0.1-1.7,0.2-2.5c0.1-0.8,0.2-1.6,0.5-2.4
	l37.4-161c0.8-3.3,2.2-6.4,4-9.2c1.9-2.8,5-4.9,9.3-6.2c3.8-1,7.6-1.8,11.5-2.3c4.2-0.7,8.4-1.2,12.6-1.4l2.3-10.2L225.3,140.2
	L225.3,140.2z"/>
</svg>
