<svg xmlns="http://www.w3.org/2000/svg" viewBox="0 0 500 500"><defs><style>.cls-1{isolation:isolate;}</style></defs><title>microphone-slash</title><g id="Artboard_1" data-name="Artboard 1" class="cls-1"><g id="Next"><g id="Ready"><g id="Microphone_Slash" data-name="Microphone Slash"><path d="M308.32,385a104.22,104.22,0,0,0,30.82-4.63l-25.57-25.57c-1.73.12-3.48.2-5.25.2H188.69a74.88,74.88,0,0,1-74.77-75V250A15,15,0,1,0,84,250v30c0,58,46.86,105,104.67,105H233v45H173.74a15,15,0,0,0,0,30H323.28a15,15,0,0,0,0-30H264V385ZM413,280V250a15,15,0,1,0-29.91,0v30a74.85,74.85,0,0,1-25.5,56.38L336.31,315.1A45,45,0,0,0,353,280V85a44.77,44.77,0,0,0-44.68-45H188.69A44.78,44.78,0,0,0,144,85v37.79l-3.6-3.6a10,10,0,0,0-14.14,0l-7.07,7.07a10,10,0,0,0,0,14.14L359.6,380.81a10,10,0,0,0,14.14,0l7.07-7.07a10,10,0,0,0,0-14.14l-2-2A104.83,104.83,0,0,0,413,280ZM323,170H191.21L174,152.79V85a14.75,14.75,0,0,1,14.69-15H308.32A14.74,14.74,0,0,1,323,85ZM283.78,325,144,185.21V280a44.78,44.78,0,0,0,44.69,45Z"/></g></g></g></g></svg>