<svg xmlns="http://www.w3.org/2000/svg" viewBox="0 0 500 500"><defs><style>.cls-1{isolation:isolate;}</style></defs><title>minimize</title><g id="Artboard_1" data-name="Artboard 1" class="cls-1"><g id="Next"><g id="Ready"><g id="Minimize"><path d="M450,420H50a10,10,0,0,0-10,10v20a10,10,0,0,0,10,10H450a10,10,0,0,0,10-10V430A10,10,0,0,0,450,420Zm-199.87-9.63L391.55,269a10,10,0,0,0,0-14.15l-14.14-14.14a10,10,0,0,0-14.14,0L270.13,333.8V49.51a10,10,0,0,0-10-10h-20a10,10,0,0,0-10,10V333.8L137,240.66a10,10,0,0,0-14.14,0L108.71,254.8a10,10,0,0,0,0,14.15Z"/></g></g></g></g></svg>