<svg xmlns="http://www.w3.org/2000/svg" viewBox="0 0 500 500"><defs><style>.cls-1{isolation:isolate;}</style></defs><title>minus-circle</title><g id="Artboard_1" data-name="Artboard 1" class="cls-1"><g id="Next"><g id="Ready"><g id="minus-circle"><path d="M250,40C134,40,40,134,40,250s94,210,210,210,210-94,210-210S366,40,250,40Zm0,380A170,170,0,1,1,420,250,170,170,0,0,1,250,420ZM390,225H110a10,10,0,0,0-10,10v30a10,10,0,0,0,10,10H390a10,10,0,0,0,10-10V235A10,10,0,0,0,390,225Z"/></g></g></g></g></svg>