<?xml version="1.0" encoding="utf-8"?>
<!-- Generator: Adobe Illustrator 24.3.0, SVG Export Plug-In . SVG Version: 6.00 Build 0)  -->
<svg version="1.1" id="Layer_1" xmlns="http://www.w3.org/2000/svg" xmlns:xlink="http://www.w3.org/1999/xlink" x="0px" y="0px"
	 viewBox="0 0 500 500" style="enable-background:new 0 0 500 500;" xml:space="preserve">
<path id="Artboard_1" d="M129,380v-60h311v60H129z M129,220h311v60H129V220z M129,120h311v60H129V120z M92.5,377.8
	c-2.2,1.8-4.8,3.1-7.5,4c-6,1.9-12.5,1.8-18.5-0.2c-2.8-0.9-5.3-2.5-7.4-4.5c-2.1-2-3.7-4.5-4.7-7.2c-1.2-3.1-1.7-6.4-1.6-9.7h12.2
	c0.1,1.6,0.3,3.3,0.8,4.8c0.4,1.4,1.1,2.8,2.1,4c0.9,1.1,2.1,2,3.4,2.7c1.5,0.7,3.2,1,4.8,1c2.7,0.1,5.3-0.9,7.3-2.7
	c3.3-3.4,3.9-8.6,1.6-12.7c-0.9-1.2-2.1-2.2-3.6-2.7c-1.5-0.6-3.1-0.9-4.7-1c-1.7-0.1-3.3-0.1-4.9-0.1v-9c1.5,0.1,2.9,0.1,4.4,0
	c1.5-0.1,3-0.5,4.4-1c1.3-0.5,2.4-1.4,3.3-2.5c0.9-1.2,1.4-2.8,1.3-4.3c0.1-2.4-0.9-4.7-2.7-6.2c-1.8-1.4-4-2.2-6.2-2.2
	c-3.2,0-5.7,1.1-7.3,3.2c-1.7,2.3-2.6,5.2-2.4,8.1H54.3c0.1-3,0.7-6,1.8-8.9c1-2.6,2.5-4.9,4.4-6.9c1.9-1.9,4.2-3.5,6.8-4.5
	c2.8-1.1,5.8-1.6,8.8-1.6c2.6,0,5.1,0.4,7.6,1.1c2.4,0.7,4.8,1.9,6.8,3.4c2,1.5,3.7,3.3,4.9,5.5c1.3,2.3,1.9,4.9,1.9,7.5
	c0.1,2.9-0.7,5.7-2.2,8.1c-1.5,2.4-3.9,4.1-6.6,4.8v0.2c3.2,0.6,6.2,2.4,8.2,5c2,2.7,3.1,5.9,3,9.3
	C99.7,368.4,97.1,374.1,92.5,377.8z M54.6,272.4c1-2.6,2.5-5.1,4.3-7.2c1.9-2.2,4-4.2,6.3-5.9c2.4-1.8,5-3.6,7.7-5.5
	c1.4-1,2.8-1.9,4.4-2.9c1.5-1,3-2.1,4.3-3.3c1.3-1.2,2.4-2.5,3.2-4.1c0.9-1.6,1.3-3.3,1.3-5.1c0.2-2.7-0.8-5.2-2.7-7.2
	c-1.8-1.7-4.3-2.7-6.8-2.6c-1.7-0.1-3.3,0.4-4.7,1.3c-1.3,0.9-2.4,2-3.1,3.4c-0.8,1.5-1.4,3-1.7,4.7c-0.3,1.7-0.5,3.4-0.5,5.1H54.5
	c-0.1-3.4,0.3-6.8,1.3-10c0.9-3,2.4-5.7,4.3-8.1c2-2.3,4.4-4.2,7.2-5.4c3.2-1.3,6.6-2,10-1.9c2.8,0,5.6,0.4,8.2,1.4
	c2.5,0.8,4.9,2.2,6.9,3.9c2,1.7,3.6,3.8,4.7,6.2c1.2,2.6,1.8,5.4,1.8,8.3c0.1,2.8-0.4,5.6-1.5,8.2c-1,2.2-2.4,4.3-4.1,6.1
	c-1.7,1.8-3.6,3.4-5.7,4.8c-2.1,1.4-4.3,2.9-6.4,4.3c-2.2,1.4-4.3,2.9-6.3,4.5c-2.1,1.6-3.9,3.5-5.4,5.7h29.8v11H53
	C53,278.7,53.5,275.4,54.6,272.4z M73.7,141.1H57.8v-9.6c2.2,0.1,4.3-0.1,6.4-0.5c2-0.4,3.9-1.1,5.6-2.1c1.7-1,3.1-2.3,4.2-3.9
	c1.2-1.8,2-3.9,2.2-6h10.2v63H73.7V141.1L73.7,141.1z"/>
</svg>
