<?xml version="1.0" encoding="utf-8"?>
<!-- Generator: Adobe Illustrator 25.4.1, SVG Export Plug-In . SVG Version: 6.00 Build 0)  -->
<svg version="1.1" id="Layer_1" xmlns="http://www.w3.org/2000/svg" xmlns:xlink="http://www.w3.org/1999/xlink" x="0px" y="0px"
	 viewBox="0 0 500 500" style="enable-background:new 0 0 500 500;" xml:space="preserve">
<path id="Artboard_1" d="M250,460c-116,0-210-94-210-210S134,40,250,40s210,94,210,210S366,460,250,460z M250,80
	c-93.9,0-170,76.1-170,170s76.1,170,170,170s170-76.1,170-170S343.9,80,250,80z M249.5,361.3c-61.2,0-110.8-49.6-110.8-110.8
	s49.6-110.8,110.8-110.8s110.8,49.6,110.8,110.8c0,0,0,0,0,0C360.4,311.7,310.8,361.3,249.5,361.3z"/>
</svg>
