<?xml version="1.0" encoding="utf-8"?>
<!-- Generator: Adobe Illustrator 24.3.0, SVG Export Plug-In . SVG Version: 6.00 Build 0)  -->
<svg version="1.1" id="Layer_1" xmlns="http://www.w3.org/2000/svg" xmlns:xlink="http://www.w3.org/1999/xlink" x="0px" y="0px"
	 viewBox="0 0 500 500" style="enable-background:new 0 0 500 500;" xml:space="preserve">
<path id="Artboard_1" d="M40,360h420v65H40V360z M195,265h265v65H195V265z M195,170h265v65H195V170z M40,75h420v65H40V75z M43,254.7
	l115.2,96.7c2.3,1.3,5.2,0.5,6.6-1.8c0.4-0.7,0.6-1.6,0.6-2.4V153.8c0-2.7-2.1-4.8-4.8-4.8c-0.8,0-1.7,0.2-2.4,0.6L43,246.3
	c-2.3,1.3-3.1,4.3-1.8,6.6C41.7,253.6,42.3,254.2,43,254.7z"/>
</svg>
