<svg xmlns="http://www.w3.org/2000/svg" viewBox="0 0 500 500"><defs><style>.cls-1{isolation:isolate;}</style></defs><title>pencil-circle</title><g id="Artboard_1" data-name="Artboard 1" class="cls-1"><g id="Next"><g id="Ready"><g id="pencil-circle"><path d="M250,40C134,40,40,134,40,250s94,210,210,210,210-94,210-210S366,40,250,40Zm0,380A170,170,0,1,1,420,250,170,170,0,0,1,250,420Zm44-266.45,50.12,50.29,7.08-7.06-50.12-50.29ZM151.62,295.46l-14.25,65,63.66-14L340.55,207.37l-50.12-50.29Zm19,46-7.06-7.08-7.06-7.08,7.11-29.69c11.31,0,20.09,6,25.44,11.35,5.56,5.58,11.29,13,11.27,25.48ZM313.71,191.77l-114,113.66-7.06-7.08,114-113.66ZM376,157.92l-36-36.11a10,10,0,0,0-14.14,0L304.59,143l50.13,50.29L376,172.07A10,10,0,0,0,376,157.92Z"/></g></g></g></g></svg>