<svg xmlns="http://www.w3.org/2000/svg" viewBox="0 0 500 500"><defs><style>.cls-1{isolation:isolate;}</style></defs><title>pencil</title><g id="Artboard_1" data-name="Artboard 1" class="cls-1"><g id="Next"><g id="Ready"><g id="Pencil"><path d="M111.26,320.89,104.19,393,174.9,386,377.84,183l-64.35-64.35Zm62.93,53L144.49,381l-14.14-14.15-14.14-14.14,7.07-29.7c15-2,24.59-3.69,39.6,11.32S176.86,358.74,174.19,373.93ZM343.9,160.38,173.49,330.79l-7.08-7.07L336.83,153.31Zm76.37-33.94L370.06,76.23a10,10,0,0,0-14.14,0L334.71,97.45l64.34,64.34,21.22-21.21A10,10,0,0,0,420.27,126.44Zm-99.71-14.85,64.35,64.35,7.07-7.08-64.34-64.34Z"/></g></g></g></g></svg>