<?xml version="1.0" encoding="utf-8"?>
<!-- Generator: Adobe Illustrator 25.4.1, SVG Export Plug-In . SVG Version: 6.00 Build 0)  -->
<svg version="1.1" id="Layer_1" xmlns="http://www.w3.org/2000/svg" xmlns:xlink="http://www.w3.org/1999/xlink" x="0px" y="0px"
	 viewBox="0 0 500 500" style="enable-background:new 0 0 500 500;" xml:space="preserve">
<path id="Artboard_1" d="M428,308c-8.9,0-17.3-3.9-23-10.7l-220.4,96.6c2.8,16.3-8.1,31.9-24.4,34.7c-16.3,2.8-31.9-8.1-34.7-24.4
	c-1.4-8.2,0.6-16.6,5.6-23.2l-38-44.6c-15.6,5.6-32.8-2.6-38.3-18.2c-5.6-15.6,2.6-32.8,18.2-38.3c6.1-2.2,12.8-2.3,19.1-0.4
	L227.9,88.1c-10.6-12.8-8.8-31.7,4-42.3c12.8-10.6,31.7-8.8,42.3,4c10.6,12.8,8.8,31.7-4,42.3c-8.4,7-19.9,8.8-30.1,4.8L104.8,287.4
	c10.7,11.2,11,28.8,0.8,40.4l37.3,43.8c12.4-5.5,27-2,35.5,8.6l220.2-96.5c-3.1-16.3,7.5-32,23.8-35.2s32,7.5,35.2,23.8
	c3.1,16.3-7.5,32-23.8,35.2C431.8,307.8,429.9,308,428,308z M68,308c0,8.3,6.7,15,15,15s15-6.7,15-15s-6.7-15-15-15S68,299.7,68,308
	L68,308z M266,69c0-8.3-6.7-15-15-15s-15,6.7-15,15s6.7,15,15,15l0,0C259.3,84,266,77.3,266,69z M155,384c-8.3,0-15,6.7-15,15
	s6.7,15,15,15s15-6.7,15-15S163.3,384,155,384L155,384z M428,263c-8.3,0-15,6.7-15,15s6.7,15,15,15s15-6.7,15-15S436.3,263,428,263
	L428,263z"/>
</svg>
