<?xml version="1.0" encoding="utf-8"?>
<!-- Generator: Adobe Illustrator 25.4.1, SVG Export Plug-In . SVG Version: 6.00 Build 0)  -->
<svg version="1.1" id="Layer_1" xmlns="http://www.w3.org/2000/svg" xmlns:xlink="http://www.w3.org/1999/xlink" x="0px" y="0px"
	 viewBox="0 0 500 500" style="enable-background:new 0 0 500 500;" xml:space="preserve">
<path id="Artboard_1" d="M256,427c-96.7,0-175-78.4-175-175c0-83,58.3-154.5,139.5-171.4c3-16.3,18.6-27.1,34.9-24.1
	c11.5,2.1,20.8,10.7,23.7,22C374.9,91.2,442.2,179.2,429.5,275C417.9,362,343.8,427,256,427z M250,71c-8.3,0-15,6.7-15,15
	s6.7,15,15,15s15-6.7,15-15l0,0C265,77.7,258.3,71,250,71z M279,93.7c-4.2,16-20.6,25.6-36.7,21.4c-9.7-2.6-17.5-9.8-20.7-19.3
	c-86.3,19-140.9,104.3-121.9,190.6S204,427.3,290.3,408.3s140.9-104.3,121.9-190.6C398,152.6,344.9,103.2,279,93.7z"/>
</svg>
