<?xml version="1.0" encoding="utf-8"?>
<!-- Generator: Adobe Illustrator 25.4.1, SVG Export Plug-In . SVG Version: 6.00 Build 0)  -->
<svg version="1.1" id="Layer_1" xmlns="http://www.w3.org/2000/svg" xmlns:xlink="http://www.w3.org/1999/xlink" x="0px" y="0px"
	 viewBox="0 0 500 500" style="enable-background:new 0 0 500 500;" xml:space="preserve">
<path id="Artboard_1" d="M430,171.6v167.8c15.8,5,24.6,21.8,19.6,37.6c-5,15.8-21.8,24.6-37.6,19.6c-9.3-2.9-16.7-10.3-19.6-19.6
	H115.6c-5,15.8-21.8,24.6-37.6,19.6S53.4,374.8,58.4,359c3.2-10.1,11.4-17.7,21.6-20.2V172.2c-16.1-3.9-26-20.1-22.2-36.2
	c3.9-16.1,20.1-26,36.2-22.2c11.3,2.7,20.1,11.8,22.4,23.2h275.2c3.3-16.2,19.2-26.7,35.4-23.4c16.2,3.3,26.7,19.2,23.4,35.4
	C448.2,159.7,440.4,168.4,430,171.6z M421,383c8.3,0,15-6.7,15-15s-6.7-15-15-15s-15,6.7-15,15l0,0C406,376.3,412.7,383,421,383z
	 M72,368c0,8.3,6.7,15,15,15s15-6.7,15-15s-6.7-15-15-15S72,359.7,72,368L72,368z M87,128c-8.3,0-15,6.7-15,15s6.7,15,15,15
	s15-6.7,15-15l0,0C102,134.7,95.3,128,87,128z M392.4,152H115.6c-3.1,9.7-10.8,17.2-20.6,19.9v167.2c10.9,3,19.1,11.9,21.4,22.9
	h275.2c2.4-11.8,11.6-21,23.4-23.4V172.4C404.3,170.2,395.7,162.4,392.4,152z M421,128c-8.3,0-15,6.7-15,15s6.7,15,15,15
	s15-6.7,15-15l0,0C436,134.7,429.3,128,421,128z"/>
</svg>
