<?xml version="1.0" encoding="utf-8"?>
<!-- Generator: Adobe Illustrator 25.4.1, SVG Export Plug-In . SVG Version: 6.00 Build 0)  -->
<svg version="1.1" id="Layer_1" xmlns="http://www.w3.org/2000/svg" xmlns:xlink="http://www.w3.org/1999/xlink" x="0px" y="0px"
	 viewBox="0 0 500 500" style="enable-background:new 0 0 500 500;" xml:space="preserve">
<path id="Artboard_1" d="M435,178.5V319c14.9,7.2,21.2,25.1,14,40.1s-25.1,21.2-40.1,14c-1-0.5-1.9-1-2.8-1.6l-126.2,71.8
	c0,0.6,0.1,1.2,0.1,1.7c0,16.6-13.4,30-30,30s-30-13.4-30-30l0,0c0-0.8,0-1.5,0.1-2.3L96.2,372.2c-13.9,9-32.5,5-41.5-8.9
	s-5-32.5,8.9-41.5c0.8-0.5,1.5-0.9,2.3-1.4V179.5c-14.7-7.7-20.3-25.8-12.6-40.5s25.8-20.3,40.5-12.6c0.8,0.4,1.6,0.9,2.4,1.4
	L220,57.3c0-0.4,0-0.9,0-1.3c0-16.6,13.4-30,30-30s30,13.4,30,30c0,0.3,0,0.5,0,0.8l124,70.5c13.6-9.4,32.3-6,41.7,7.6
	c9.4,13.6,6,32.3-7.6,41.7C437.1,177.3,436.1,178,435,178.5z M391,152c0-1,0-1.9,0.1-2.9L268.7,79.4c-10.8,8.6-26.1,8.8-37.1,0.3
	l-122,68.8c2.1,13.8-5.6,27.3-18.7,32.4v138.2c12.8,5,20.5,18,18.8,31.6l122.7,70c10.6-7.7,25-7.5,35.5,0.3l124.3-70.7
	c-2-13.3,5.2-26.3,17.5-31.8V179.8C398.5,175.3,391,164.3,391,152z M437,346c0-8.3-6.7-15-15-15s-15,6.7-15,15s6.7,15,15,15l0,0
	C430.3,361,437,354.3,437,346z M250,460c8.3,0,15-6.7,15-15s-6.7-15-15-15s-15,6.7-15,15l0,0C235,453.3,241.7,460,250,460z M80,362
	c8.3,0,15-6.7,15-15s-6.7-15-15-15s-15,6.7-15,15S71.7,362,80,362L80,362z M80,138c-8.3,0-15,6.7-15,15s6.7,15,15,15s15-6.7,15-15
	l0,0C95,144.7,88.3,138,80,138z M250,41c-8.3,0-15,6.7-15,15c0,8.3,6.7,15,15,15s15-6.7,15-15C265,47.7,258.3,41,250,41L250,41z
	 M421,137c-8.3,0-15,6.7-15,15s6.7,15,15,15s15-6.7,15-15S429.3,137,421,137L421,137z"/>
</svg>
