<svg xmlns="http://www.w3.org/2000/svg" viewBox="0 0 500 500"><defs><style>.cls-1{isolation:isolate;}</style></defs><title>popout</title><g id="Artboard_1" data-name="Artboard 1" class="cls-1"><g id="Next"><g id="Ready"><g id="Pop_Out" data-name="Pop Out"><path d="M430,250H410a10,10,0,0,0-10,10V420H80V100H240a10,10,0,0,0,10-10V70a10,10,0,0,0-10-10H50A10,10,0,0,0,40,70V450a10,10,0,0,0,10,10H430a10,10,0,0,0,10-10V260A10,10,0,0,0,430,250ZM280.19,40a10,10,0,0,0-10,10V70a10,10,0,0,0,10,10H391.78L166.93,304.84a10,10,0,0,0,0,14.13l14.13,14.13a10,10,0,0,0,14.13,0L420,108.23v111.6a10,10,0,0,0,10,10h20a10,10,0,0,0,10-10V40Z"/></g></g></g></g></svg>