<?xml version="1.0" encoding="utf-8"?>
<!-- Generator: Adobe Illustrator 25.3.1, SVG Export Plug-In . SVG Version: 6.00 Build 0)  -->
<svg version="1.1" id="Layer_1" xmlns="http://www.w3.org/2000/svg" xmlns:xlink="http://www.w3.org/1999/xlink" x="0px" y="0px"
	 viewBox="0 0 500 500" style="enable-background:new 0 0 500 500;" xml:space="preserve">
<path id="Artboard_1" d="M40,335h344l-93.8,93.7c-3.9,3.9-3.9,10.2,0,14.2l14.1,14.2c3.9,3.9,10.2,3.9,14.1,0c0,0,0,0,0,0L460,315.5
	L318.5,173.9c-3.9-3.9-10.2-3.9-14.1,0c0,0,0,0,0,0l-14.1,14.2c-3.9,3.9-3.9,10.2,0,14.2L383,295H80V50c0-5.5-4.5-10-10-10H50
	c-5.5,0-10,4.5-10,10V335z"/>
</svg>
