<?xml version="1.0" encoding="utf-8"?>
<!-- Generator: Adobe Illustrator 25.2.3, SVG Export Plug-In . SVG Version: 6.00 Build 0)  -->
<svg version="1.1" id="Layer_1" xmlns="http://www.w3.org/2000/svg" xmlns:xlink="http://www.w3.org/1999/xlink" x="0px" y="0px"
	 viewBox="0 0 500 500" style="enable-background:new 0 0 500 500;" xml:space="preserve">
<path id="Artboard_1" d="M450,250H310c-5.5,0-10-4.5-10-10v-20c0-5.5,4.5-10,10-10h140c5.5,0,10,4.5,10,10v20
	C460,245.5,455.5,250,450,250z M380.1,200.4l-71.4-71.4c-3.9-3.9-3.9-10.2,0-14.1l14.1-14.1c3.9-3.9,10.2-3.9,14.1,0l23.1,23.1V49.5
	c0-5.5,4.5-10,10-10h20c5.5,0,10,4.5,10,10v74.3l23.1-23.1c3.9-3.9,10.2-3.9,14.1,0l14.1,14.1c3.9,3.9,3.9,10.2,0,14.1L380.1,200.4z
	 M40,220c0-5.5,4.5-10,10-10h220c5.5,0,10,4.5,10,10v240H40V220z M70,430h180V240H70V430z"/>
</svg>
