<svg xmlns="http://www.w3.org/2000/svg" viewBox="0 0 500 500"><defs><style>.cls-1{isolation:isolate;}</style></defs><title>speaker-slash</title><g id="Artboard_1" data-name="Artboard 1" class="cls-1"><g id="Next"><g id="Ready"><g id="Speaker_Slash" data-name="Speaker Slash"><path d="M119.41,161.35H72.5A17.51,17.51,0,0,0,55,178.86V318.93a17.51,17.51,0,0,0,17.5,17.51h46.91l118,84.22A16.44,16.44,0,0,0,247.51,424a18.7,18.7,0,0,0,8.05-1.93A17.49,17.49,0,0,0,265,406.48V306.23L119.83,161.05ZM380.81,359.6l-90.88-90.89A45,45,0,0,0,265,207.94V91.31a17,17,0,0,0-26.95-14.18l-81.72,58L140.4,119.19a10,10,0,0,0-14.14,0l-7.07,7.07a10,10,0,0,0,0,14.14L359.6,380.81a10,10,0,0,0,14.14,0l7.07-7.07A10,10,0,0,0,380.81,359.6Z"/></g></g></g></g></svg>