<svg xmlns="http://www.w3.org/2000/svg" viewBox="0 0 500 500"><defs><style>.cls-1{isolation:isolate;}</style></defs><title>speaker-low</title><g id="Artboard_1" data-name="Artboard 1" class="cls-1"><g id="Next"><g id="Ready"><g id="Speaker_Low" data-name="Speaker Low"><path d="M265,207.94V91.31a17,17,0,0,0-26.95-14.18L119.41,161.35H72.5A17.51,17.51,0,0,0,55,178.86V318.93a17.51,17.51,0,0,0,17.5,17.51h46.91l118,84.22A16.44,16.44,0,0,0,247.51,424a18.7,18.7,0,0,0,8.05-1.93A17.49,17.49,0,0,0,265,406.48V292.06a45,45,0,0,0,0-84.12ZM334,150H324a10,10,0,0,0-10,10V340a10,10,0,0,0,10,10h10a10,10,0,0,0,10-10V160A10,10,0,0,0,334,150Z"/></g></g></g></g></svg>