<?xml version="1.0" encoding="utf-8"?>
<!-- Generator: Adobe Illustrator 24.3.0, SVG Export Plug-In . SVG Version: 6.00 Build 0)  -->
<svg version="1.1" id="Layer_1" xmlns="http://www.w3.org/2000/svg" xmlns:xlink="http://www.w3.org/1999/xlink" x="0px" y="0px"
	 viewBox="0 0 500 500" style="enable-background:new 0 0 500 500;" xml:space="preserve">
<path id="Artboard_1" d="M353.6,293h-11.9c0,1.1,0.1,2.2,0.1,3.3c0,9.6-2.3,19.1-6.7,27.7c-4.3,8.7-10.4,16.3-18,22.2
	c-8.6,6.7-18.3,11.8-28.7,15.1c-10.9,3.5-23.6,5.3-38,5.3c-12.7,0.1-25.4-1.6-37.7-5c-10.3-2.8-20.2-6.8-29.6-11.9l-10.7,10.9h-13.2
	l-1.7-67.5h-10.2v-18.9h93c-4.5-1.5-8.8-2.9-12.9-4.2c-7.3-2.4-14.2-4.8-20.6-7.3c-14.8-5.9-25.8-14.4-33-25.3
	c-7.2-10.9-10.9-23.8-10.8-36.9c0-8.6,1.9-17.1,5.6-24.8c3.9-8.2,9.5-15.4,16.3-21.4c6.8-5.9,15.6-10.7,26.2-14.5
	c11.2-3.8,23-5.7,34.8-5.6c11.6-0.1,23.2,1.6,34.3,5.1c10.7,3.4,19,6.8,25.2,10.2l9.5-9.3h13.5l1.2,75.2h-13.4
	c-3.1-8.1-6.8-16.4-10.9-24.8c-3.6-7.5-8.1-14.6-13.3-21.1c-4.9-5.9-10.8-10.8-17.5-14.4c-6.6-3.6-14.4-5.4-23.3-5.4
	c-11.2,0-20.3,3.2-27.4,9.5c-6.9,5.8-10.8,14.5-10.6,23.5c0,8.8,3.1,16,9.2,21.6c6.2,5.6,15.8,10.5,28.8,14.8
	c7.7,2.6,15.5,5.2,23.4,7.8c8,2.6,15.1,5.1,21.3,7.5c15,5.8,26.4,13.8,34.2,24c3.6,4.8,6.5,10.1,8.3,15.8h15.2L353.6,293L353.6,293z
	 M182,304.8c4.5,8.1,9.9,15.7,16.2,22.6c6.1,6.8,13.3,12.5,21.2,17c7.8,4.4,17,6.5,27.4,6.5c14.1,0,24.9-3.4,32.4-10.3
	c7.5-6.9,11.3-15.6,11.3-26c0.1-8.2-3.3-16-9.4-21.5H175.9C177.8,296.9,179.8,300.8,182,304.8L182,304.8z"/>
</svg>
