<svg xmlns="http://www.w3.org/2000/svg" width="500" height="500" viewBox="0 0 500 500">
  <defs>
    <style>
      .cls-1 {
        fill: #222;
        fill-rule: evenodd;
      }
    </style>
  </defs>
  <g id="Artboard_1" data-name="Artboard 1">
    <g id="Next">
      <path id="X" class="cls-1" d="M413.25,421.673H327.476v-12.52a54.171,54.171,0,0,1,6.865-6.356q4.395-3.521,10.436-7.638,3.66-2.467,8.788-5.4t11.626-6.4a87.458,87.458,0,0,0,11.122-6.768,35.5,35.5,0,0,0,7.094-7.226,22.905,22.905,0,0,0,3.388-7.087,44.26,44.26,0,0,0,1.281-12.12q0-11.432-6.133-16.783T366.2,328.026a27.667,27.667,0,0,0-11.26,2.334,17.521,17.521,0,0,0-7.964,6.454q0.639,2.931,1.6,6.957a33.845,33.845,0,0,1,.961,7.873,8.258,8.258,0,0,1-2.883,6.179q-2.885,2.7-8.56,2.7a8.423,8.423,0,0,1-7.048-3.158,13.373,13.373,0,0,1-2.472-8.468,20.466,20.466,0,0,1,2.746-9.932,31.922,31.922,0,0,1,7.873-9.2,40.187,40.187,0,0,1,12.45-6.682,48.727,48.727,0,0,1,16.019-2.564q18.765,0,29.8,8.368a26.651,26.651,0,0,1,11.031,22.358,35.833,35.833,0,0,1-1.968,12.162,24.961,24.961,0,0,1-6.362,9.692,47.7,47.7,0,0,1-11.352,8q-6.5,3.339-19.864,9.28-7.964,3.569-14.83,7.454a77.289,77.289,0,0,0-11.259,7.543H413.25v16.3ZM211.685,347.122q13.095-.318,21.162-2.477t8.066-6.63q0-2.4-3.674-9.906t-9.424-16.783q-6.388-10.235-15.173-24.068t-17.4-26.467q-14.065,18.551-31.962,44.691t-17.9,30.775a8.161,8.161,0,0,0,4.873,7.749q4.875,2.48,21.494,3.116v11.343H87.065V347.122q4.153-.318,10.625-1.2a34.2,34.2,0,0,0,10.624-2.956,54.252,54.252,0,0,0,13.341-9.666A113.052,113.052,0,0,0,131.8,321.077Q142.013,307.011,157.98,286t28.262-38.28q-9.276-13.573-23.666-34.418t-30.7-44.638a127.064,127.064,0,0,0-10.765-14.219,33.545,33.545,0,0,0-10.444-7.19,41.228,41.228,0,0,0-10.605-2.8Q93.286,143.418,89.3,143.1V131.752H194.27V143.1a119.079,119.079,0,0,0-19.217,2.317q-9.972,2-9.97,6.151,0,3.036,3.994,10.624t9.429,16.22q5.594,8.952,12.467,19.821t16.786,25.091q18.033-24.451,31.125-44.109t13.088-25.57q0-5.112-6-7.509T225.745,143.1V131.752h84.518V143.1a92.926,92.926,0,0,0-10.465,1.2,44.069,44.069,0,0,0-10.784,2.956q-8.31,4-12.382,8.628T265.69,169.311q-12.777,16.484-23.554,30.963t-25.95,35.279q12.777,18.191,28.507,41.33t30.1,44.2a100.949,100.949,0,0,0,11.341,13.653q6.389,6.469,10.385,8.867a24.7,24.7,0,0,0,10.3,2.8q6.471,0.561,10.944.719v11.343H211.685V347.122Z"/>
    </g>
  </g>
</svg>
