<?xml version="1.0" encoding="utf-8"?>
<!-- Generator: Adobe Illustrator 25.2.3, SVG Export Plug-In . SVG Version: 6.00 Build 0)  -->
<svg version="1.1" id="Layer_1" xmlns="http://www.w3.org/2000/svg" xmlns:xlink="http://www.w3.org/1999/xlink" x="0px" y="0px"
	 viewBox="0 0 500 500" style="enable-background:new 0 0 500 500;" xml:space="preserve">
<path id="Artboard_1" d="M450,109.5H310c-5.5,0-10-4.5-10-10v-20c0-5.5,4.5-10,10-10h140c5.5,0,10,4.5,10,10v20
	C460,105,455.5,109.5,450,109.5z M40,80c0-5.5,4.5-10,10-10h220c5.5,0,10,4.5,10,10v380H40V80z M70,430h180V100H70V430z
	 M379.9,119.1l71.4,71.4c3.9,3.9,3.9,10.2,0,14.1l-14.1,14.1c-3.9,3.9-10.2,3.9-14.1,0l-23.1-23.1V270c0,5.5-4.5,10-10,10h-20
	c-5.5,0-10-4.5-10-10v-74.3l-23.1,23.1c-3.9,3.9-10.2,3.9-14.1,0l-14.1-14.1c-3.9-3.9-3.9-10.2,0-14.1L379.9,119.1z"/>
</svg>
