<?xml version="1.0" encoding="utf-8"?>
<!-- Generator: Adobe Illustrator 23.0.4, SVG Export Plug-In . SVG Version: 6.00 Build 0)  -->
<svg version="1.1" id="Layer_1" xmlns="http://www.w3.org/2000/svg" xmlns:xlink="http://www.w3.org/1999/xlink" x="0px" y="0px"
	 viewBox="0 0 500 500" style="enable-background:new 0 0 500 500;" xml:space="preserve">
<title>triangle-right-circle</title>
<path id="Artboard_1" d="M320,246.3l-115.2-96.7c-2.3-1.3-5.2-0.5-6.6,1.8c-0.4,0.7-0.6,1.6-0.6,2.4v193.4c0,2.7,2.1,4.8,4.8,4.8
	c0.8,0,1.7-0.2,2.4-0.6L320,254.7c2.3-1.3,3.1-4.3,1.8-6.6C321.3,247.4,320.7,246.8,320,246.3z M398.5,101.5c-82-82-215-82-297,0
	s-82,215,0,297s215,82,297,0S480.5,183.5,398.5,101.5L398.5,101.5z M370.2,370.2c-66.4,66.4-174,66.4-240.4,0s-66.4-174,0-240.4
	c66.4-66.4,174-66.4,240.4,0C436.6,196.2,436.6,303.8,370.2,370.2C370.2,370.2,370.2,370.2,370.2,370.2L370.2,370.2z"/>
</svg>
