<?xml version="1.0" encoding="utf-8"?>
<!-- Generator: Adobe Illustrator 23.0.4, SVG Export Plug-In . SVG Version: 6.00 Build 0)  -->
<svg version="1.1" id="Layer_1" xmlns="http://www.w3.org/2000/svg" xmlns:xlink="http://www.w3.org/1999/xlink" x="0px" y="0px"
	 viewBox="0 0 500 500" style="enable-background:new 0 0 500 500;" xml:space="preserve">
<title>triangle-up-circle</title>
<path id="Artboard_1" d="M254.7,180c-1.3-2.3-4.3-3.1-6.6-1.8c-0.7,0.4-1.3,1-1.8,1.8l-96.7,115.2c-1.3,2.3-0.5,5.2,1.8,6.6
	c0.7,0.4,1.6,0.6,2.4,0.6h193.4c2.7,0,4.8-2.1,4.8-4.8c0-0.8-0.2-1.7-0.6-2.4L254.7,180z M398.5,101.5c-82-82-215-82-297,0
	s-82,215,0,297s215,82,297,0S480.5,183.5,398.5,101.5L398.5,101.5z M370.2,370.2c-66.4,66.4-174,66.4-240.4,0s-66.4-174,0-240.4
	c66.4-66.4,174-66.4,240.4,0C436.6,196.2,436.6,303.8,370.2,370.2L370.2,370.2z"/>
</svg>
