<?xml version="1.0" encoding="utf-8"?>
<!-- Generator: Adobe Illustrator 23.0.4, SVG Export Plug-In . SVG Version: 6.00 Build 0)  -->
<svg version="1.1" id="Layer_1" xmlns="http://www.w3.org/2000/svg" xmlns:xlink="http://www.w3.org/1999/xlink" x="0px" y="0px"
	 viewBox="0 0 500 500" style="enable-background:new 0 0 500 500;" xml:space="preserve">
<title>triangle-left-circle</title>
<path id="Artboard_1" d="M295.2,148.6L180,245.3c-2.3,1.3-3.1,4.3-1.8,6.6c0.4,0.7,1,1.3,1.8,1.8l115.2,96.7
	c2.3,1.3,5.2,0.5,6.6-1.8c0.4-0.7,0.6-1.6,0.6-2.4V152.8c0-2.7-2.1-4.8-4.8-4.8C296.8,148,295.9,148.2,295.2,148.6z M398.5,101.5
	c-82-82-215-82-297,0s-82,215,0,297s215,82,297,0S480.5,183.5,398.5,101.5z M370.2,370.2c-66.4,66.4-174,66.4-240.4,0
	s-66.4-174,0-240.4c66.4-66.4,174-66.4,240.4,0C436.6,196.2,436.6,303.8,370.2,370.2C370.2,370.2,370.2,370.2,370.2,370.2
	L370.2,370.2z"/>
</svg>
