<?xml version="1.0" encoding="utf-8"?>
<!-- Generator: Adobe Illustrator 24.3.0, SVG Export Plug-In . SVG Version: 6.00 Build 0)  -->
<svg version="1.1" id="Layer_1" xmlns="http://www.w3.org/2000/svg" xmlns:xlink="http://www.w3.org/1999/xlink" x="0px" y="0px"
	 viewBox="0 0 500 500" style="enable-background:new 0 0 500 500;" xml:space="preserve">
<path id="Artboard_1" d="M129,320h311v60H129V320z M129,220h311v60H129V220z M129,120h311v60H129V120z M80.1,320
	c16.6,0,30.1,13.5,30.1,30.1s-13.5,30.1-30.1,30.1S50,366.7,50,350.1c0,0,0,0,0,0C50,333.5,63.5,320,80.1,320
	C80.1,320,80.1,320,80.1,320z M80.1,220c16.6,0,30.1,13.5,30.1,30.1c0,16.6-13.5,30.1-30.1,30.1S50,266.7,50,250.1c0,0,0,0,0,0
	C50,233.5,63.5,220,80.1,220C80.1,220,80.1,220,80.1,220z M80.1,120c16.6,0,30.1,13.5,30.1,30.1s-13.5,30.1-30.1,30.1
	S50,166.7,50,150.1c0,0,0,0,0,0C50,133.5,63.5,120,80.1,120C80.1,120,80.1,120,80.1,120z"/>
</svg>
