<?xml version="1.0" encoding="utf-8"?>
<!-- Generator: Adobe Illustrator 24.3.0, SVG Export Plug-In . SVG Version: 6.00 Build 0)  -->
<svg version="1.1" id="Layer_1" xmlns="http://www.w3.org/2000/svg" xmlns:xlink="http://www.w3.org/1999/xlink" x="0px" y="0px"
	 viewBox="0 0 500 500" style="enable-background:new 0 0 500 500;" xml:space="preserve">
<path id="Artboard_1" d="M381.7,137.2H286v12.1c4.7,0.9,9.4,2,14.1,3.4c6.7,1.9,11.4,3.9,14.1,6.2c3.7,2.9,6.5,7.6,8.3,14.2
	s2.7,16.5,2.7,29.7v74.7c0,21.3-5.1,37.5-15.4,48.5s-24.3,16.5-42.3,16.5c-18.3,0-32.3-5-41.9-14.9s-14.4-25.8-14.4-47.7V168.7
	c-0.1-3.4,0.6-6.7,2-9.8c1.3-2.9,4-5,7.9-6.2c3.4-1.1,6.9-2,10.4-2.6c3.3-0.6,6.7-0.9,10.1-1.2v-11.8H126.1V149
	c2.5,0.3,5.7,0.9,9.6,1.7c3.4,0.7,6.8,1.8,9.9,3.3c3.9,2.1,6.6,4.4,8,7c1.5,2.9,2.2,6.1,2.1,9.3V283c0,25.4,8.6,45.1,25.8,59.3
	c17.2,14.2,41.5,21.3,72.8,21.3c26.9,0,48.6-7.4,64.9-22.1c16.4-14.7,24.5-34.1,24.5-58.2v-82c0-13.5,0.8-23.6,2.4-30.3
	c1.6-6.7,4.4-11.4,8.3-14c4.3-2.9,9.1-4.8,14.2-5.7c5.6-1.1,10-1.8,13-2.1L381.7,137.2L381.7,137.2z M107.2,409.2v-28.9h285.1v28.9
	H107.2z"/>
</svg>
