<?xml version="1.0" encoding="utf-8"?>
<!-- Generator: Adobe Illustrator 23.0.4, SVG Export Plug-In . SVG Version: 6.00 Build 0)  -->
<svg version="1.1" id="Layer_1" xmlns="http://www.w3.org/2000/svg" xmlns:xlink="http://www.w3.org/1999/xlink" x="0px" y="0px"
	 viewBox="0 0 500 500" style="enable-background:new 0 0 500 500;" xml:space="preserve">
<title>upload</title>
<g id="Artboard_1">
	<g id="Next">
		<g id="Ready">
			<g id="Upload">
				<path d="M450,340h-20c-5.5,0-10,4.5-10,10v70H80v-70c0-5.5-4.5-10-10-10H50c-5.5,0-10,4.5-10,10v100c0,5.5,4.5,10,10,10h400
					c5.5,0,10-4.5,10-10V350C460,344.5,455.5,340,450,340z M123.1,208.8c3.9,3.9,10.2,3.9,14.1,0c0,0,0,0,0,0l93.2-93.2V370
					c0,5.5,4.5,10,10,10h20c5.5,0,10-4.5,10-10V115.6l93.2,93.2c3.9,3.9,10.2,3.9,14.1,0c0,0,0,0,0,0l14.2-14.1
					c3.9-3.9,3.9-10.2,0-14.1L250.5,39L109,180.5c-3.9,3.9-3.9,10.2,0,14.1L123.1,208.8z"/>
			</g>
		</g>
	</g>
</g>
</svg>
