<?xml version="1.0" standalone="no"?>
<!DOCTYPE svg PUBLIC "-//W3C//DTD SVG 1.1//EN" "http://www.w3.org/Graphics/SVG/1.1/DTD/svg11.dtd">
<svg xmlns="http://www.w3.org/2000/svg">
<metadata>Brandon Harris</metadata>
<defs>
<font id="cornflowerblue" horiz-adv-x="1000" >
<font-face font-family="cornflowerblue" font-weight="400" font-stretch="normal" units-per-em="1000" ascent="850" descent="-150" />
<missing-glyph horiz-adv-x="1000" />
<glyph glyph-name="arrow-down-circle" unicode="&#x21;" d="M783 336l-28 29c-8 7-21 7-28 0l-187-187v477c0 11-9 20-20 20h-40c-11 0-20-9-20-20v-477l-186 187c-8 7-20 7-28 0l-29-29c-7-7-7-20 0-28 0 0 0 0 0 0l283-283 283 283c8 8 8 20 0 28 0 0 0 0 0 0z m-283 434c-232 0-420-188-420-420s188-420 420-420 420 188 420 420-188 420-420 420z m0-760c-188 0-340 152-340 340s152 340 340 340 340-152 340-340-152-340-340-340l0 0z" horiz-adv-x="1000" />

<glyph glyph-name="arrow-up" unicode="&#x22;" d="M782 471l-283 283-283-283c-8-8-8-20 0-28 0 0 0 0 0 0l28-28c8-8 21-8 28 0 0 0 0 0 0 0l187 186v-637c0-11 9-20 20-20h40c11 0 20 9 20 20v637l186-187c8-7 21-7 28 0 0 0 0 0 0 0l29 29c8 8 8 20 0 28 0 0 0 0 0 0z" horiz-adv-x="1000" />

<glyph glyph-name="download" unicode="&#x23;" d="M900 170h-40c-11 0-20-9-20-20v-140h-680v140c0 11-9 20-20 20h-40c-11 0-20-9-20-20v-200c0-11 9-20 20-20h800c11 0 20 9 20 20v200c0 11-9 20-20 20z m-400-81l283 283c8 8 8 20 0 28 0 0 0 0 0 0l-28 28c-8 8-21 8-28 0l-187-186v507c0 11-9 20-20 20h-40c-11 0-20-9-20-20v-507l-186 187c-8 7-20 7-28 0l-29-29c-7-7-7-20 0-28 0 0 0 0 0 0l283-283z" horiz-adv-x="1000" />

<glyph glyph-name="map" unicode="&#x24;" d="M610 665l-220 50-240-55v-680l240 55 220-50 240 55v680z m-240-595l-180-40v600l180 40z m220-40l-180 40v600l180-40z m220 40l-180-40v600l180 40z" horiz-adv-x="1000" />

<glyph glyph-name="arrow-right" unicode="&#x25;" d="M622 632c-8 8-21 8-29 0 0 0 0 0 0 0l-28-28c-8-8-8-20 0-28l186-186h-637c-11 0-20-9-20-20v-40c0-11 9-20 20-20h637l-186-186c-8-8-8-21 0-28l28-29c8-7 21-7 29 0 0 0 0 0 0 0l283 283-283 282z" horiz-adv-x="1000" />

<glyph glyph-name="upload" unicode="&#x26;" d="M900 170h-40c-11 0-20-9-20-20v-140h-680v140c0 11-9 20-20 20h-40c-11 0-20-9-20-20v-200c0-11 9-20 20-20h800c11 0 20 9 20 20v200c0 11-9 20-20 20z m-654 262c8-7 21-7 28 0 0 0 0 0 0 0l187 187v-509c0-11 9-20 20-20h40c11 0 20 9 20 20v509l186-187c8-7 21-7 28 0 0 0 0 0 0 0l29 29c8 7 8 20 0 28l-283 283-283-283c-8-8-8-20 0-28l28-29z" horiz-adv-x="1000" />

<glyph glyph-name="arrow-left" unicode="&#x27;" d="M886 388h-638l187 187c8 7 8 20 0 28l-28 28c-8 8-21 8-29 0 0 0 0 0 0 0l-283-282 283-283c8-8 21-8 28 0 0 0 0 0 0 0l29 28c8 8 8 21 0 28l-187 187h638c11 0 20 9 20 20v40c0 11-9 20-20 19z" horiz-adv-x="1000" />

<glyph glyph-name="arrow-down-circle-1" unicode="&#x28;" d="M783 376l-28 29c-8 7-21 7-28 0l-187-187v397c0 11-9 20-20 20h-40c-11 0-20-9-20-20v-397l-186 187c-8 7-20 7-28 0l-29-29c-7-7-7-20 0-28l0 0 283-281 283 281c8 8 8 20 0 28 0 0 0 0 0 0z m-283 394c-232 0-420-188-420-420s188-420 420-420 420 188 420 420-188 420-420 420z m0-760c-188 0-340 152-340 340s152 340 340 340 340-152 340-340-152-340-340-340l0 0z" horiz-adv-x="1000" />

<glyph glyph-name="calendar" unicode="&#x29;" d="M80 750v-740h840v740z m196-680h-136v144h136z m0 204h-136v136h136z m0 196h-136v134h136z m194-400h-134v144h134z m0 204h-134v136h134z m0 196h-134v134h134z m196-400h-136v144h136z m0 204h-136v136h136z m0 196h-136v134h136z m194-400h-134v144h134z m0 204h-134v136h134z m0 196h-134v134h134z" horiz-adv-x="1000" />

<glyph glyph-name="trashcan" unicode="&#x2a;" d="M699 614v156l-421 0 0-156h-158v-107h106l-1-577 526 0 1 577h104v107z m-368 105h316v-52h-316z m53-736h-105v527l105 0z m157 0h-105v527l105 0z m158 0h-105v527l105 0z" horiz-adv-x="1000" />

<glyph glyph-name="tag" unicode="&#x2b;" d="M836 249l-328 328c0 0-5 5-17 5h-204c-16 0-30-13-30-30v-204c0-12 5-17 5-17l328-328c12-12 31-12 42 0 0 0 0 0 0 0l204 204c12 11 12 30 0 42z m-457 211c-15-16-41-16-56 0s-16 41 0 56c15 16 41 16 56 0 16-15 16-40 0-56 0 0 0 0 0 0z" horiz-adv-x="1000" />

<glyph glyph-name="legend" unicode="&#x2c;" d="M402 92h480v60h-480z m0 258h480v60h-480z m0 314v-60h480v60z m-258-636h192v190h-192z m189 352c0 51-42 92-94 92s-93-41-93-92 42-93 93-93 94 42 94 93z m-94 160l113 190h-226z" horiz-adv-x="1000" />

<glyph glyph-name="echx" unicode="&#x2d;" d="M818 597l-71 71-247-247-247 247-71-71 247-247-247-247 71-71 247 247 247-247 71 71-247 247 247 247z" horiz-adv-x="1000" />

<glyph glyph-name="arrow-down" unicode="&#x2e;" d="M783 256l-28 29c-8 7-21 7-28 0l-187-187v637c0 11-9 20-20 20h-40c-11 0-20-9-20-20v-637l-186 187c-8 7-20 7-28 0l-29-29c-7-7-7-20 0-28l0 0 283-283 283 283c8 8 8 20 0 28 0 0 0 0 0 0z" horiz-adv-x="1000" />

<glyph glyph-name="check-circle-disc" unicode="&#x2f;" d="M500 770c-232 0-420-188-420-420s188-420 420-420 420 188 420 420-188 420-420 420z m269-300l-339-340c-8-8-20-8-28 0 0 0 0 0 0 0l-170 170c-8 8-8 20 0 28l28 28c8 8 21 8 28 0 0 0 0 0 0 0l128-127 297 297c8 8 20 8 28 0l28-28c8-8 8-21 0-28z" horiz-adv-x="1000" />

<glyph glyph-name="checkmark-circle" unicode="&#x30;" d="M500 770c-232 0-420-188-420-420s188-420 420-420 420 188 420 420-188 420-420 420z m0-760a340 340 0 1 0 340 340 340 340 0 0 0-340-340z m269 488l-28 28a20 20 0 0 1-28 0l-297-297-127 127a20 20 0 0 1-29 0l-28-28a20 20 0 0 1 0-28l170-170a20 20 0 0 1 28 0l339 339a20 20 0 0 1 0 29z" horiz-adv-x="1000" />

<glyph glyph-name="chevron-down" unicode="&#x31;" d="M910 507l-113 113a20 20 0 0 1-28 0l-269-269-269 269a20 20 0 0 1-28 0l-113-113a20 20 0 0 1 0-28l283-284 113-113a20 20 0 0 1 28 0l113 113 283 284a20 20 0 0 1 0 28z" horiz-adv-x="1000" />

<glyph glyph-name="checkmark" unicode="&#x32;" d="M875 579l-28 29a20 20 0 0 1-28 0l-467-467-170 170a20 20 0 0 1-28 0l-28-29a20 20 0 0 1 0-28l212-212a20 20 0 0 1 28 0l509 509a20 20 0 0 1 0 28z" horiz-adv-x="1000" />

<glyph glyph-name="chevron-left" unicode="&#x33;" d="M499 350l268 269a20 20 0 0 1 0 28l-113 113a20 20 0 0 1-28 0l-283-283-113-113a20 20 0 0 1 0-28l113-113 283-283a20 20 0 0 1 28 0l113 113a20 20 0 0 1 0 28z" horiz-adv-x="1000" />

<glyph glyph-name="chevron-right" unicode="&#x34;" d="M768 364l-113 113-283 283a20 20 0 0 1-29 0l-113-113a20 20 0 0 1 0-28l269-269-269-269a20 20 0 0 1 0-28l113-113a20 20 0 0 1 29 0l283 283 113 113a20 20 0 0 1 0 28z" horiz-adv-x="1000" />

<glyph glyph-name="chevron-up" unicode="&#x35;" d="M908 222l-283 283-113 113a20 20 0 0 1-28 0l-113-113-283-283a20 20 0 0 1 0-29l113-113a20 20 0 0 1 28 0l269 269 269-269a20 20 0 0 1 28 0l113 113a20 20 0 0 1 0 29z" horiz-adv-x="1000" />

<glyph glyph-name="double-triangle-vertical" unicode="&#x36;" d="M308 404h386a10 10 0 0 1 9 15l-194 230a10 10 0 0 1-16 0l-194-230a10 10 0 0 1 9-15z m386-109h-386a10 10 0 0 1-9-15l194-230a10 10 0 0 1 16 0l194 230a10 10 0 0 1-9 15z" horiz-adv-x="1000" />

<glyph glyph-name="chat" unicode="&#x37;" d="M501 646c-232 0-421-108-421-241 0-114 138-210 324-235-15-43-41-93-80-118 76 0 151 59 203 112 220 8 395 112 395 241 0 133-188 241-421 241z" horiz-adv-x="1000" />

<glyph glyph-name="heart" unicode="&#x38;" d="M762 724c-135 27-225-47-263-140-1 2-3 7-4 8-37 82-104 144-224 138-105-14-169-75-189-174-14-125 50-197 113-255 20-20 42-37 65-55 83-64 172-122 243-200a575 575 0 0 0 51 52c66 60 142 111 213 168 68 55 130 117 151 218 15 133-55 212-156 240z" horiz-adv-x="1000" />

<glyph glyph-name="no" unicode="&#x39;" d="M500 770c-232 0-420-188-420-420s188-420 420-420 420 188 420 420-188 420-420 420z m-320-420c0 176 144 320 320 320a318 318 0 0 0 182-57l-436-457a318 318 0 0 0-66 194z m320-320a318 318 0 0 0-182 57l436 457a318 318 0 0 0 66-194c0-176-144-320-320-320z" horiz-adv-x="1000" />

<glyph glyph-name="double-triangle-horizontal" unicode="&#x3a;" d="M430 551l-230-194a10 10 0 0 1 0-16l230-194a10 10 0 0 1 15 9v386a10 10 0 0 1-15 9z m370-194l-230 194a10 10 0 0 1-15-9v-386a10 10 0 0 1 15-9l230 194a10 10 0 0 1 0 16z" horiz-adv-x="1000" />

<glyph glyph-name="arrow-left-circle" unicode="&#x3b;" d="M766 388h-398l187 187c8 7 8 20 0 28l-28 28c-8 8-21 8-29 0l0 0-283-282 283-283c8-8 21-8 28 0l0 0 29 28c8 8 8 21 0 28l-187 187h398c11 0 20 9 20 20v40c0 11-9 20-20 19z m-266 382c-232 0-420-188-420-420s188-420 420-420 420 188 420 420-188 420-420 420z m0-760c-188 0-340 152-340 340s152 340 340 340 340-152 340-340-152-340-340-340l0 0z" horiz-adv-x="1000" />

<glyph glyph-name="echx-circle" unicode="&#x3c;" d="M797 647c-164 164-430 164-594 0s-164-430 0-594 430-164 594 0 164 430 0 594z m-57-537a340 340 0 1 0 0 480 340 340 0 0 0 0-480z m-7 431l-42 42a20 20 0 0 1-28 0l-163-162-163 162a20 20 0 0 1-28 0l-42-42a20 20 0 0 1 0-28l162-163-162-163a20 20 0 0 1 0-28l42-42a20 20 0 0 1 28 0l163 162 163-162a20 20 0 0 1 28 0l42 42a20 20 0 0 1 0 28l-162 163 162 163a20 20 0 0 1 0 28z" horiz-adv-x="1000" />

<glyph glyph-name="echx-1" unicode="&#x3d;" d="M571 350l205 205a20 20 0 0 1 0 28l-43 43a20 20 0 0 1-28 0l-205-205-205 205a20 20 0 0 1-28 0l-43-43a20 20 0 0 1 0-28l205-205-205-205a20 20 0 0 1 0-28l43-43a20 20 0 0 1 28 0l205 205 205-205a20 20 0 0 1 28 0l43 43a20 20 0 0 1 0 28z" horiz-adv-x="1000" />

<glyph glyph-name="spinner-circle" unicode="&#x3e;" d="M540 770v-81c169-19 300-163 300-338 0-46-9-92-28-135l70-40c25 55 38 115 38 175 0 219-167 399-380 419z m-380-419c0 175 131 319 300 338v81c-213-20-380-200-380-419 0-60 13-120 38-175l69 41c-18 42-27 88-27 134z m340-341c-107 0-208 51-272 137l-70-40c134-189 396-234 585-99 38 27 72 60 99 99l-69 40c-65-86-166-137-273-137l0 0z" horiz-adv-x="1000" />

<glyph glyph-name="circle-disc-chopped" unicode="&#x3f;" d="M920 360c-1 19-2 39-6 58 0 0 0 0 0 0 0 3-1 6-1 8 0 1 0 2 0 2-1 3-1 5-2 7 0 3-1 6-2 9-2 12-5 23-9 34-7 20-15 40-25 60l0 0c-4 9-9 18-15 27-7 13-16 26-25 38 0 0 0 0 0 0-22 28-46 53-74 75l0 0c-16 13-32 24-50 35l0 0c-4 2-9 5-13 7l-1 1c-19 9-38 18-58 25l-1 1c-5 1-10 3-16 5-11 3-22 6-33 8l0 0c-3 1-6 2-9 2l-1 0c-2 1-5 1-8 2l-2 0c-2 1-4 1-7 1l-3 1c-15 2-30 3-46 4-4 0-8 0-13 0s-9 0-14 0h-2c-21-1-42-3-63-7-9-2-19-4-29-7h0c-5-1-9-2-14-4l0 0c-33-10-64-24-94-42-7-4-14-9-21-13l-1-1c-3-2-6-4-10-7l0 0c-11-8-20-16-30-24l-1-1c-3-2-6-5-8-8l-1 0c-6-6-12-12-18-18l0-1c-3-2-6-5-8-8l-1-1c-8-10-16-19-24-30l0 0c-3-4-5-7-7-10l0-1c-5-7-10-14-14-21-18-30-32-61-42-94 0 0 0 0 0 0-1-5-3-9-4-14v0c-8-30-12-61-14-92 0 0 0-1 0-2 0-5 0-9 0-14 0-20 2-40 4-59 1-1 1-2 1-3 0-3 1-5 1-7 0-1 0-2 0-2 1-3 1-6 2-8 0-1 0-1 0-1 1-3 1-6 2-9l0 0c2-11 5-22 8-33 2-5 4-11 5-16 1 0 1-1 1-1 7-20 15-39 25-58 0 0 0 0 1-1 2-4 5-9 7-13l0 0c28-48 65-90 110-124l0 0c12-9 25-18 38-25 9-6 18-11 27-15 30-15 61-27 94-34 3-1 6-2 9-2 2-1 5-1 7-2l2 0c3-1 5-1 8-1h1c19-3 38-5 57-6 4 0 7 0 10 0l0 0c4 0 8 0 12 0h0c29 1 58 5 87 12l0 0c5 1 9 2 13 3l1 0c35 10 68 24 99 42l3 2c8 4 15 9 23 14l2 2c8 5 15 11 22 16l2 2c8 6 14 12 21 18l2 2c7 6 13 13 20 20l2 2c6 6 12 13 18 20l1 3c6 7 12 14 17 22l1 2c6 8 11 15 15 23l2 3c2 4 4 8 6 12 15 27 27 57 36 87 0 0 0 0 0 1 1 4 2 8 3 12 0 1 0 1 0 1 7 29 11 58 12 87v0c0 4 0 8 0 12 0 3 0 7 0 10z m-558 301l-173-173c35 77 96 138 173 173l0 0z m-194-236l257 257c17 3 33 6 50 7l-314-314c1 17 4 33 7 50l0 0z m-3-131c-2 12-4 25-4 38l357 358c13-1 26-2 38-5l-391-391z m7-35l419 419c11-3 21-7 32-11l-440-440c-4 11-8 21-11 32l0 0z m24-61l456 456c10-5 19-10 27-15l-468-468c-5 8-10 17-15 27z m32-53l476 477c8-6 16-13 24-20l-480-480c-7 8-14 15-20 23l0 0z m64-64c-8 7-16 13-23 20l480 480c7-7 13-15 20-23l-477-477z m25-17l469 470c6-9 11-18 16-27l-459-459c-9 5-18 10-26 16l0 0z m87-40c-11 3-21 7-32 11l443 443c4-11 8-21 11-32l-422-422z m72-13c-13 1-25 2-38 5l396 396c3-12 4-25 5-38l-363-363z m150 23l190 190c-35-87-103-155-190-190l0 0z m208 250l-268-268c-16-3-32-5-48-6l322 322c-1-16-3-32-6-48z" horiz-adv-x="1000" />

<glyph glyph-name="circle" unicode="&#x40;" d="M500 770c-232 0-420-188-420-420s188-420 420-420 420 188 420 420-188 420-420 420z m0-760c-188 0-340 152-340 340s152 340 340 340 340-152 340-340-152-340-340-340l0 0z" horiz-adv-x="1000" />

<glyph glyph-name="disc-chopped" unicode="&#x41;" d="M784 659l-593-593c7-8 14-15 21-22l594 594c-7 7-14 14-22 21z m-47 38l-584-584c6-9 12-17 18-25l591 591c-8 6-16 12-25 18z m-114 55l-525-525c3-10 7-21 11-31l545 545c-10 4-21 8-31 11z m61-24l-562-562c5-9 10-18 15-27l574 574c-9 5-18 10-27 15l0 0z m-544-162l144 144c-59-35-109-85-144-144l0 0z m413 201l-470-470c2-12 4-24 6-36l500 500c-12 2-24 4-36 6z m-189-20l-261-261c-7-18-12-38-16-57l334 334c-19-4-39-9-57-16l0 0z m136 23c-10 0-20 0-30-1l-389-389c-1-10-1-20-1-30 0-4 0-9 0-13l433 433c-4 0-9 0-13 0z m126-821l275 275c5 18 10 37 13 56l-344-344c19 3 38 8 56 13z m200 666l-591-591c7-6 15-12 24-18l585 585c-6 8-12 17-18 24l0 0z m44-465l-170-169c72 38 131 97 170 169l0 0z m50 220l-440-440c7 0 13 0 20 0 8 0 15 0 23 1l396 396c1 8 1 15 1 23 0 7 0 13 0 20l0 0z m-59 195l-576-576c9-5 18-10 27-15l564 564c-5 9-10 19-15 27l0 0z m48-120l-504-504c12-3 24-5 36-7l475 475c-2 12-4 24-7 36l0 0z m-20 64l-548-548c10-4 21-8 31-11l528 528c-3 10-7 21-11 31l0 0z" horiz-adv-x="1000" />

<glyph glyph-name="gear-complex" unicode="&#x42;" d="M920 294v108l-90 7c-3 18-7 35-13 52l74 51-54 93-82-39c-11 13-24 26-37 37l38 82-93 54-51-75c-16 6-34 11-51 14l-7 90h-108l-7-90c-17-3-35-8-51-14l-51 74-93-53 38-82c-13-11-26-24-37-37l-82 38-54-93 74-51c-6-16-10-34-13-51l-90-7v-108l90-7c3-17 8-35 14-51l-74-51 53-93 82 38c11-13 24-26 37-37l-38-82 93-54 51 74c17-6 34-10 51-13l7-90h108l7 90c18 3 35 7 52 13l51-74 93 54-39 82c14 11 26 24 38 37l81-38 54 93-74 51c6 16 10 34 14 51l89 7z m-289 268l-86-102c-29 12-61 12-90 0l-86 102c81 49 182 49 262 0z m-74-214c0-32-25-57-57-57s-57 26-57 57 26 57 57 57l0 0c32 0 57-25 57-57 0 0 0 0 0 0l0 0z m-270-131c-50 80-50 182 0 262l101-86c-12-29-12-61 0-90l-101-86z m82-83l86 102c29-12 62-12 91 0l86-102c-81-49-182-49-263 0z m345 83l-101 86c11 29 11 61 0 91l101 85c49-80 48-181 0-262z" horiz-adv-x="1000" />

<glyph glyph-name="gear" unicode="&#x43;" d="M916 423c-3 4-7 6-12 7l-100 15c-6 19-13 37-22 54 6 9 16 21 29 38s23 29 28 36c3 4 5 8 5 13 0 4-2 8-4 12-13 18-43 49-91 93-3 3-8 5-13 5-5 0-10-2-13-5l-78-58c-16 8-32 14-49 20l-16 100c0 5-2 9-6 12-4 3-8 5-13 5h-122c-10 0-17-5-19-16-5-18-10-52-16-101-17-5-34-12-50-21l-75 59c-4 3-9 5-14 5-8 0-26-13-52-39s-44-46-54-59c-3-4-5-9-5-12 0-5 2-10 6-13 24-30 44-55 58-76-9-16-16-32-21-50l-102-15c-4-1-8-3-11-7-2-4-4-8-4-13v-121c0-5 2-9 4-13 3-4 7-6 12-7l100-14c5-19 13-37 22-54-6-9-16-22-29-39-14-16-23-28-28-36-3-4-5-8-5-13 0-4 2-8 4-12 14-20 44-50 90-92 4-4 9-6 14-6 5 0 10 2 14 5l77 59c16-8 32-15 49-21l15-100c1-5 3-9 7-12 3-3 8-4 13-4h121c11 0 18 5 20 15 5 18 10 52 16 101 17 6 34 13 50 21l75-59c4-3 9-5 14-5 8 0 25 13 52 39 26 26 44 45 54 59 3 3 5 8 5 12 0 5-2 10-6 14-26 32-45 57-58 75 8 16 15 33 21 50l101 15c5 1 9 3 11 7 3 4 5 8 5 13v121c0 5-2 10-4 13z m-317-171c-27-27-60-41-99-41s-72 14-99 41-41 60-41 99 14 71 41 99c27 27 60 41 99 41s72-14 99-41c27-27 41-60 41-99s-14-71-41-99z" horiz-adv-x="1000" />

<glyph glyph-name="globe" unicode="&#x44;" d="M814 220c0 8 12 92-11 82-14-7-18-95-15-110 6-35 17-70-34-78-34-5-46-1-65-34-40-71-26-37-69-61-17-10-7-26-47-40-24-8-94-41-106-2-28 88 53 57 50 146-3 71 20 30 38 85 5 15 25 40 10 57-3 5-37 8-51 18-27 19-17 30-16 52 1 45-1 55 31 94 43 49 79 30 131 31 20 2-4 27-1 37 4 16 91-20 49 31-33 37 20 36 28 5 8-25 8-55 33-15 10 16 19 16 32 9 25-14 21 1 39 5 16 3 37-9 47-22-76 185-276 292-472 252 39-9 28-17 48-37 7-6 24-11 36-12 32-2 64-4 95-19 2 0 80-65 81-69 7-15-29-21-41-16-38 15-15 8-53 15-21 4-3 31-6 40-11 71-31-60-58-60-104-1-30 34-185-4-26-6-13 19-16 30-18 44-90 7-82-13 5-10 48-5 69-62 2-5 17-36 6-35-29 3-36 78-63 65-10-3-4-20-15-26-19-10-17-1-27-25-5-11-23-19-26-10-2 10 21 50 24 66 1 10-9 34-14 42-107-118-137-285-79-435 36 7 30 43 42 75 11 26 21 30 5 61-17 36-12 22-11 60 1 25-8 24 9 49 6 11 23 41 31 48 11 10 30 15 41 5 14-12 46-40 55-47 45-30-12-33 30-86 11-13 35-28 42-45 9-20-27-65-42-82-8-8-15-11-22-11-40 0-24-1-47-30-12-18-32-6-37-19-7-17-20-31-37-32-10 0-13-19-18-25 175-265 572-246 720 35-40-1-60 29-56 67z m46 44c-49-10 42-30 44-30 7 25-35 31-44 30z m12 102c-11 10-33 42-50 37-62-17 60-83 98-70v26c-7-11-40 0-48 7l0 0z" horiz-adv-x="1000" />

<glyph glyph-name="help-circle" unicode="&#x45;" d="M457 149h88v85h-88v-85z m147 404c-30 22-66 32-110 32-34 0-62-7-85-22-37-23-56-63-59-119h85c0 17 5 33 14 47 10 15 26 23 48 23 23 0 39-6 48-19 8-11 13-26 13-40 0-13-4-25-12-36-4-6-10-12-17-17l-21-17c-21-16-34-31-39-43-5-13-9-36-10-69h80c0 16 1 28 3 35 4 12 12 22 23 31l21 16c21 16 35 30 42 40 13 18 19 39 19 65 0 41-14 72-43 93l0 0z m-104 217c-232 0-420-188-420-420s188-420 420-420 420 188 420 420-188 420-420 420z m0-760c-188 0-340 152-340 340s152 340 340 340 340-152 340-340-152-340-340-340l0 0z" horiz-adv-x="1000" />

<glyph glyph-name="lightbulb" unicode="&#x46;" d="M604 191c0 155 162 164 162 317s-111 261-267 261-263-107-263-261c0-156 158-162 158-317 0 0 210-3 210 0z m-208-53c0 0 1-104 1-103 0-58 48-105 106-105 58 0 105 47 105 105 0 0 0 0 0 0 0 24-4 104-4 104l-208-1z" horiz-adv-x="1000" />

<glyph glyph-name="lock-open" unicode="&#x47;" d="M792 416h-409v117c0 66 53 119 119 119 59 0 119-37 119-107 0-32 56-38 58-38 3 0 58 6 58 38 0 63-25 120-71 162-43 39-102 61-164 61-130 0-235-105-235-235v-117h-59c-11 0-20-9-20-20v-58l0 0v-331l0 0v-57c0-11 9-20 20-20h584c11 0 20 9 20 20v446c0 11-9 20-20 20z m-238-370c1-4-1-7-4-8-1 0-1 0-2 0l0 0-98 1c-3 0-6 2-6 5 0 1 0 1 0 2l26 127c-33 17-46 57-30 90 17 33 57 46 90 30 33-17 46-57 30-90-7-13-18-24-32-31l26-126z" horiz-adv-x="1000" />

<glyph glyph-name="magnify" unicode="&#x48;" d="M889 136l-276 192c-19 13-44 15-65 6 53 109 19 240-80 309-111 76-264 48-340-62-77-111-49-264 62-340 100-69 234-55 317 34-1-23 10-45 29-58l276-191c31-21 73-14 94 17 21 30 14 72-17 93l0 0 0 0z m-420 209c-54-78-160-97-237-44s-97 160-44 238 160 97 237 43c0 0 1 0 1 0 77-54 96-160 43-237z" horiz-adv-x="1000" />

<glyph glyph-name="menu" unicode="&#x49;" d="M900 70h-800c-11 0-20-9-20-20v-100c0-11 9-20 20-20h800c11 0 20 9 20 20v100c0 11-9 20-20 20z m0 352h-800c-11 0-20-9-20-20v-100c0-11 9-20 20-20h800c11 0 20 9 20 20v100c0 11-9 20-20 20z m0 348h-800c-11 0-20-9-20-20v-100c0-11 9-20 20-20h800c11 0 20 9 20 20v100c0 11-9 20-20 20z" horiz-adv-x="1000" />

<glyph glyph-name="question" unicode="&#x4a;" d="M431-13h146v141h-146l0-141z m244 674c-49 35-110 53-184 53-56 0-103-12-141-37-61-39-94-105-98-197h142c0 27 7 53 23 78 16 25 43 37 80 37 39 0 65-10 80-30 14-20 21-44 21-68 0-21-7-42-19-59-8-11-18-21-28-29l-36-28c-35-27-57-51-65-72-9-21-14-59-16-114h133c0 26 2 45 6 57 6 20 19 37 38 52l34 26c35 28 59 50 71 68 21 29 32 64 32 107 0 69-25 121-73 156z" horiz-adv-x="1000" />

<glyph glyph-name="star" unicode="&#x4b;" d="M920 443l-282 54-138 251-138-251-282-54 196-209-36-284 260 122 260-122-36 284 196 209z" horiz-adv-x="1000" />

<glyph glyph-name="user-circle" unicode="&#x4c;" d="M501 600c-81 0-146-65-146-146s66-146 146-146c81 0 146 66 146 146 0 81-65 146-146 146z m-1 170c-232 0-420-188-420-420s188-420 420-420 420 188 420 420-188 420-420 420z m271-625c-100 149-302 188-451 88-36-24-66-54-90-90-114 149-86 363 63 477s363 86 477-63c93-122 93-290 1-412z" horiz-adv-x="1000" />

<glyph glyph-name="user" unicode="&#x4d;" d="M500 376c97 0 175 78 175 175s-78 175-175 175-175-78-175-175l0 0c0-97 78-175 175-175z m0-24c-213 0-386-170-390-382h780c-4 212-177 382-390 382z" horiz-adv-x="1000" />

<glyph glyph-name="exclaim" unicode="&#x4e;" d="M542 180l46 364v226h-173v-226l44-364h83z m-132-70v-182h184v182h-184z" horiz-adv-x="1000" />

<glyph glyph-name="shape-hex" unicode="&#x4f;" d="M907 543l-237 214c-7 7-17 11-27 11h-285c-9 0-18-3-24-9l-238-214c-9-7-14-18-14-29v-333c0-11 4-21 12-28l238-214c7-7 16-11 26-11h285c9 0 18 3 25 10l238 213c9 7 14 18 14 30v333c0 10-4 20-13 27z" horiz-adv-x="1000" />

<glyph glyph-name="shape-rounded-triangle" unicode="&#x50;" d="M908 134l-319 533c-18 30-51 49-87 49-35 0-68-18-87-49l-319-533c-19-31-19-69-1-101 18-32 51-51 88-51h638c37 0 69 19 88 51 18 32 18 70-1 101z" horiz-adv-x="1000" />

<glyph glyph-name="warn-circle" unicode="&#x51;" d="M523 277l24 188v117h-91v-117l24-188 43 0z m-69-131h96v94h-96v-94z m48 622c-232 0-420-188-420-420s188-420 420-420 420 188 420 420-188 420-420 420z m0-760c-188 0-340 152-340 340s152 340 340 340 340-152 340-340-152-340-340-340l0 0z" horiz-adv-x="1000" />

<glyph glyph-name="warn-hex" unicode="&#x52;" d="M907 543l-237 214c-7 7-17 11-27 11h-285c-9 0-18-3-24-9l-238-214c-9-7-14-18-14-29v-333c0-11 4-21 12-28l238-214c7-7 16-11 26-11h285c9 0 18 3 25 10l238 213c9 7 14 18 14 30v333c0 10-4 20-13 27z m-471 125h132v-172l-35-276h-64l-33 276v172z m136-640h-140v138h140v-138z" horiz-adv-x="1000" />

<glyph glyph-name="warn-triangle" unicode="&#x53;" d="M908 134l-319 533c-18 30-51 49-87 49-35 0-68-18-87-49l-319-533c-19-31-19-69-1-101 18-32 51-51 88-51h638c37 0 69 19 88 51 18 32 18 70-1 101z m-455 442h100v-130l-27-208h-48l-25 208 0 130z m103-482h-106v104h106v-104z" horiz-adv-x="1000" />

<glyph glyph-name="eye-slash" unicode="&#x54;" d="M500 157c-102-1-186 82-187 183 0 1 0 2 0 3 0 1 0 1 0 2v1c0 1 0 2 0 3v0c0 2 0 3 0 4 0 1 0 1 0 1a184 184 0 0 0 19 82l-81 81q-11-8-21-15c-61-46-136-121-136-121a48 48 0 0 1-2-66s7-8 27-28c57-58 119-108 190-147 56-30 114-51 177-54 5 0 9 0 14 0s9 0 13 0c48 3 93 15 135 33l-59 60a184 184 0 0 0-89-22z m17 93l-101 102a77 77 0 0 0-19 4q-1-2-1-5c0-57 47-102 104-102a107 107 0 0 1 17 1z m389 131s-75 75-136 121c-52 38-107 71-168 92-34 11-68 18-102 18s-68-7-102-18a510 510 0 0 1-69-30l-48 48a20 20 0 0 1-28 0l-15-14a20 20 0 0 1 0-29l481-481a20 20 0 0 1 29 0l14 15a20 20 0 0 1 0 28l-32 32c55 35 105 77 151 124 19 20 27 28 27 28a49 49 0 0 1-2 66z m-219-36c0-1 0-1 0-2 0-1 0-2 0-3a183 183 0 0 0-33-102l-63 64a102 102 0 0 1 12 49c0 58-46 103-104 103-1 0-3 0-4 0a76 76 0 0 0 5-28 74 74 0 0 0-6-28l-106 106a188 188 0 0 0 111 38h2c103-1 186-85 185-188 0 0 0 0 0-1 0-1 0-2 0-4v0c0-1 0-2 0-3 1 0 1 0 1-1z" horiz-adv-x="1000" />

<glyph glyph-name="microphone-slash" unicode="&#x55;" d="M617 80a208 208 0 0 1 61 9l-51 51c-3 0-7 0-10 0h-240a150 150 0 0 0-149 150v60a30 30 0 1 1-60 0v-60c0-116 94-210 209-210h89v-90h-118a30 30 0 0 1 0-60h299a30 30 0 0 1 0 60h-119v90z m209 210v60a30 30 0 1 1-60 0v-60a150 150 0 0 0-51-113l-42 43a90 90 0 0 1 33 70v390a90 90 0 0 1-89 90h-240a90 90 0 0 1-89-90v-76l-7 8a20 20 0 0 1-28 0l-15-14a20 20 0 0 1 0-29l481-481a20 20 0 0 1 29 0l14 15a20 20 0 0 1 0 28l-4 4a210 210 0 0 1 68 155z m-180 220h-264l-34 34v136a30 30 0 0 0 29 30h240a30 30 0 0 0 29-30z m-78-310l-280 280v-190a90 90 0 0 1 89-90z" horiz-adv-x="1000" />

<glyph glyph-name="minimize" unicode="&#x56;" d="M900 10h-800a20 20 0 0 1-20-20v-40a20 20 0 0 1 20-20h800a20 20 0 0 1 20 20v40a20 20 0 0 1-20 20z m-400 19l283 283a20 20 0 0 1 0 28l-28 29a20 20 0 0 1-28 0l-187-187v569a20 20 0 0 1-20 20h-40a20 20 0 0 1-20-20v-569l-186 187a20 20 0 0 1-28 0l-29-29a20 20 0 0 1 0-28z" horiz-adv-x="1000" />

<glyph glyph-name="eye" unicode="&#x57;" d="M906 380c0 0-75 76-136 121-52 39-107 72-169 93-33 11-67 18-101 18s-68-7-102-18c-61-21-116-54-168-93-61-45-137-121-137-121-17-18-18-46-1-65 0 0 7-9 27-29 57-57 119-107 190-146 55-30 114-51 177-54 5 0 9 0 14 0s9 0 13 0c64 3 122 24 177 54 72 39 134 89 191 147 19 20 27 28 27 28 16 19 16 47-2 65z m-220-35c0-1 0-1 0-2 0-1 0-2 0-3-1-101-85-184-186-183-102-1-186 82-187 183 0 1 0 2 0 3 0 1 0 1 0 2v1c0 1 0 2 0 3v0c0 2 0 3 0 4 0 1 0 1 0 1-1 102 82 186 186 187h2c103-1 186-85 185-187 0 0 0 0 0-1 0-1 0-2 0-4v0c0-1 0-2 0-3 0 0 0 0 0-1z m-187 109c-1 0-3 0-4 0 15-39-4-82-43-98-9-3-18-5-28-5-9 0-19 2-28 5 0-1 0-3 0-5 0-57 46-103 104-102 57-1 103 45 103 102 0 0 0 0 0 0 0 58-46 103-104 103z" horiz-adv-x="1000" />

<glyph glyph-name="disc-check" unicode="&#x58;" d="M500 770c-232 0-420-188-420-420s188-420 420-420 420 188 420 420-188 420-420 420z m-75-652l-215 215 59 58 156-156 302 303 59-59-361-361z" horiz-adv-x="1000" />

<glyph glyph-name="minus-circle" unicode="&#x59;" d="M500 770c-232 0-420-188-420-420s188-420 420-420 420 188 420 420-188 420-420 420z m0-760a340 340 0 1 0 340 340 340 340 0 0 0-340-340z m280 390h-560a20 20 0 0 1-20-20v-60a20 20 0 0 1 20-20h560a20 20 0 0 1 20 20v60a20 20 0 0 1-20 20z" horiz-adv-x="1000" />

<glyph glyph-name="minus" unicode="&#x5a;" d="M160 400h680c11 0 20-9 20-20v-60c0-11-9-20-20-20h-680c-11 0-20 9-20 20v60c0 11 9 20 20 20z" horiz-adv-x="1000" />

<glyph glyph-name="popout" unicode="&#x5b;" d="M860 350h-40a20 20 0 0 1-20-20v-320h-640v640h320a20 20 0 0 1 20 20v40a20 20 0 0 1-20 20h-380a20 20 0 0 1-20-20v-760a20 20 0 0 1 20-20h760a20 20 0 0 1 20 20v380a20 20 0 0 1-20 20z m-300 420a20 20 0 0 1-20-20v-40a20 20 0 0 1 20-20h224l-450-450a20 20 0 0 1 0-28l28-28a20 20 0 0 1 28 0l450 450v-224a20 20 0 0 1 20-20h40a20 20 0 0 1 20 20v360z" horiz-adv-x="1000" />

<glyph glyph-name="plus" unicode="&#x5c;" d="M840 400h-290v290a20 20 0 0 1-20 20h-60a20 20 0 0 1-20-20v-290h-290a20 20 0 0 1-20-20v-60a20 20 0 0 1 20-20h290v-290a20 20 0 0 1 20-20h60a20 20 0 0 1 20 20v290h290a20 20 0 0 1 20 20v60a20 20 0 0 1-20 20z" horiz-adv-x="1000" />

<glyph glyph-name="plus-circle" unicode="&#x5d;" d="M500 770c-232 0-420-188-420-420s188-420 420-420 420 188 420 420-188 420-420 420z m0-760a340 340 0 1 0 340 340 340 340 0 0 0-340-340z m280 390h-230v230a20 20 0 0 1-20 20h-60a20 20 0 0 1-20-20v-230h-230a20 20 0 0 1-20-20v-60a20 20 0 0 1 20-20h230v-230a20 20 0 0 1 20-20h60a20 20 0 0 1 20 20v230h230a20 20 0 0 1 20 20v60a20 20 0 0 1-20 20z" horiz-adv-x="1000" />

<glyph glyph-name="pencil" unicode="&#x5e;" d="M223 208l-15-144 142 14 406 406-129 129z m125-106l-59-14-28 28-29 29 15 59c30 4 49 7 79-23s28-48 22-79z m340 427l-341-341-14 15 341 340z m153 68l-101 101a20 20 0 0 1-28 0l-43-43 129-129 43 43a20 20 0 0 1 0 28z m-200 30l129-129 14 14-129 129z" horiz-adv-x="1000" />

<glyph glyph-name="pencil-circle" unicode="&#x5f;" d="M500 770c-232 0-420-188-420-420s188-420 420-420 420 188 420 420-188 420-420 420z m0-760a340 340 0 1 0 340 340 340 340 0 0 0-340-340z m88 533l100-101 14 14-100 101z m-285-284l-28-130 127 28 279 278-100 101z m38-92l-14 14-14 14 14 60c23 0 40-12 51-23 11-11 23-26 23-51z m286 300l-228-228-14 14 228 228z m125 67l-72 72a20 20 0 0 1-28 0l-43-42 100-101 43 43a20 20 0 0 1 0 28z" horiz-adv-x="1000" />

<glyph glyph-name="refresh" unicode="&#x60;" d="M880 226l80 138h-40c-8 226-193 406-420 406-232 0-420-188-420-420s188-420 420-420a419 419 0 0 1 304 130l-57 57a340 340 0 1 0 93 247h-40z" horiz-adv-x="1000" />

<glyph glyph-name="speaker-high" unicode="&#x61;" d="M668 550h-20a20 20 0 0 1-20-20v-360a20 20 0 0 1 20-20h20a20 20 0 0 1 20 20v360a20 20 0 0 1-20 20z m-138-116v233a34 34 0 0 1-54 29l-237-169h-94a35 35 0 0 1-35-35v-280a35 35 0 0 1 35-35h94l236-168a33 33 0 0 1 20-7 37 37 0 0 1 16 4 35 35 0 0 1 19 31v229a90 90 0 0 1 0 168z m238 196h-20a20 20 0 0 1-20-20v-520a20 20 0 0 1 20-20h20a20 20 0 0 1 20 20v520a20 20 0 0 1-20 20z m100 80h-20a20 20 0 0 1-20-20v-680a20 20 0 0 1 20-20h20a20 20 0 0 1 20 20v680a20 20 0 0 1-20 20z" horiz-adv-x="1000" />

<glyph glyph-name="speaker-low" unicode="&#x62;" d="M530 434v233a34 34 0 0 1-54 29l-237-169h-94a35 35 0 0 1-35-35v-280a35 35 0 0 1 35-35h94l236-168a33 33 0 0 1 20-7 37 37 0 0 1 16 4 35 35 0 0 1 19 31v229a90 90 0 0 1 0 168z m138 116h-20a20 20 0 0 1-20-20v-360a20 20 0 0 1 20-20h20a20 20 0 0 1 20 20v360a20 20 0 0 1-20 20z" horiz-adv-x="1000" />

<glyph glyph-name="printer" unicode="&#x63;" d="M884 532h-120v208c0 16-13 30-29 30 0 0 0 0 0 0h-478c-16 0-31-14-31-30v-206l-118-1c-17 0-28-12-28-29v-360c0-16 12-30 28-30h120v-148c0-16 13-30 29-30 0 0 0 0 0 0h478c16 0 29 13 29 30 0 0 0 0 0 0v150h120c17 0 30 12 30 29v358c0 17-13 29-30 29z m-598 178h418v-176h-418v176z m418-714h-416v238h416v-238z m150 180h-90v90c0 16-13 28-30 28h-476c-8 0-16-3-22-8-5-6-8-14-8-22v-90h-88v300h714v-298z" horiz-adv-x="1000" />

<glyph glyph-name="speaker-medium" unicode="&#x64;" d="M668 550h-20a20 20 0 0 1-20-20v-360a20 20 0 0 1 20-20h20a20 20 0 0 1 20 20v360a20 20 0 0 1-20 20z m-138-116v233a34 34 0 0 1-54 29l-237-169h-94a35 35 0 0 1-35-35v-280a35 35 0 0 1 35-35h94l236-168a33 33 0 0 1 20-7 37 37 0 0 1 16 4 35 35 0 0 1 19 31v229a90 90 0 0 1 0 168z m238 196h-20a20 20 0 0 1-20-20v-520a20 20 0 0 1 20-20h20a20 20 0 0 1 20 20v520a20 20 0 0 1-20 20z" horiz-adv-x="1000" />

<glyph glyph-name="microphone" unicode="&#x65;" d="M377 200h240c49 0 89 40 89 90 0 0 0 0 0 0v390c0 49-40 90-89 90 0 0 0 0 0 0h-240c-49 0-89-40-89-90 0 0 0 0 0 0v-390c0-49 40-90 89-90 0 0 0 0 0 0z m-29 480c0 16 13 30 29 30 0 0 0 0 0 0h240c16 0 29-13 29-30 0 0 0 0 0 0v-170h-298v170z m448-300c-17 0-30-13-30-30l0 0v-60c0-83-67-150-149-150 0 0 0 0 0 0h-240c-82 0-149 67-149 150 0 0 0 0 0 0v60c1 17-11 31-28 32-17 1-31-11-32-28 0-1 0-3 0-4v-60c0-116 94-210 209-210h89v-90h-119c-16 0-30-13-30-30s14-30 30-30h299c17 0 30 13 30 30s-13 30-30 30h-118v90h89c115 0 209 94 209 210v60c0 17-13 30-30 30l0 0z" horiz-adv-x="1000" />

<glyph glyph-name="speaker-mute" unicode="&#x66;" d="M530 434v233a34 34 0 0 1-54 29l-237-169h-94a35 35 0 0 1-35-35v-280a35 35 0 0 1 35-35h94l236-168a33 33 0 0 1 20-7 37 37 0 0 1 16 4 35 35 0 0 1 19 31v229a90 90 0 0 1 0 168z" horiz-adv-x="1000" />

<glyph glyph-name="lock-closed" unicode="&#x67;" d="M792 416h-56v156c0 0 9 63-70 135-43 39-102 61-164 61-130 0-235-105-235-235v-117h-59c-11 0-20-9-20-20v-58l0 0v-331l0 0v-57c0-11 9-20 20-20h584c11 0 20 9 20 20v446c0 11-9 20-20 20z m-238-370c1-4-1-7-4-8-1 0-1 0-2 0l0 0-98 1c-3 0-6 2-6 5 0 1 0 1 0 2l26 127c-33 17-46 57-30 90 17 33 57 46 90 30 33-17 46-57 30-90-7-13-18-24-32-31l26-126z m64 370h-235v117c0 66 53 119 119 119 51 0 103-27 116-80v-156z" horiz-adv-x="1000" />

<glyph glyph-name="image" unicode="&#x68;" d="M890 674h-780c-17 0-30-14-30-30 0 0 0 0 0 0v-608c0-16 13-30 30-30 0 0 0 0 0 0h780c17 0 30 14 30 30v608c0 16-13 30-30 30 0 0 0 0 0 0z m-30-607h-720v546h720v-546z m-648 67c5-4 11-6 18-7h540c17 0 30 14 30 31 0 0 0 0 0 0 0 7-2 13-6 18l-210 274c-6 7-15 11-24 11-9 0-18-4-24-12l-117-160-49 43c-12 11-30 11-41-2-1 0-1-1-2-1l-120-152c-10-13-8-32 5-43z m142 132l49-44c12-11 31-10 42 2 0 1 0 1 1 1 0 0 1 1 1 2l113 154 150-193h-418l62 78z m-34 165c34 0 61 26 61 60s-26 61-60 61-61-26-61-60c0 0 0 0 0 0 0-34 27-61 60-61 0 0 0 0 0 0z" horiz-adv-x="1000" />

<glyph glyph-name="folder" unicode="&#x69;" d="M877 469h-41c-6 0-11 4-11 10 0 0 0 0 0 0v93c0 29-23 52-51 52h-421c-3 0-5 1-7 3l-45 37c-9 8-21 12-33 12h-136c-29 0-52-23-52-52 0 0 0 0 0 0v-538c0-29 23-52 52-52 0 0 0 0 0 0h653c24 0 44 16 50 40l82 345c5 22-8 44-30 49-4 0-7 1-10 1l0 0z m-742-260c-2 0-3 2-3 4v401c0 6 4 10 10 10l0 0h123c2 0 4-1 6-2l45-38c9-7 21-12 33-12h414c6 0 11-4 11-10 0 0 0 0 0 0v-83c0-6-5-10-11-10 0 0 0 0 0 0h-514c-23 0-44-16-50-39l-59-218c-1-3-3-4-5-3z m725 195l-74-310c-1-5-5-8-10-8h-605c-6 0-10 4-10 10 0 0 0 0 0 0 0 1 0 2 0 3l82 303c2 9 11 15 20 15h587c6 0 11-4 11-10 0-1 0-2-1-3l0 0z" horiz-adv-x="1000" />

<glyph glyph-name="document" unicode="&#x6a;" d="M824 512c-1 3-3 6-6 9l-239 240c-3 2-5 5-9 6-3 1-7 2-11 3h-361c-17 0-30-13-30-30v-780c0-17 13-30 30-30h598c17 0 30 13 30 30v542c0 3-1 7-2 10z m-238 156l138-138h-138v138z m180-678h-538v720h298v-210c0-17 14-30 31-30h209v-480z" horiz-adv-x="1000" />

<glyph glyph-name="speaker-slash" unicode="&#x6b;" d="M239 527h-94a35 35 0 0 1-35-35v-280a35 35 0 0 1 35-35h94l236-168a33 33 0 0 1 20-7 37 37 0 0 1 16 4 35 35 0 0 1 19 31v201l-290 290z m523-396l-182 182a90 90 0 0 1-50 121v233a34 34 0 0 1-54 29l-163-116-32 32a20 20 0 0 1-28 0l-15-14a20 20 0 0 1 0-29l481-481a20 20 0 0 1 29 0l14 15a20 20 0 0 1 0 28z" horiz-adv-x="1000" />

<glyph glyph-name="triangle-down-small" unicode="&#x6c;" d="M694 475h-386a10 10 0 0 1-9-15l194-230a10 10 0 0 1 16 0l194 230a10 10 0 0 1-9 15z" horiz-adv-x="1000" />

<glyph glyph-name="triangle-down" unicode="&#x6d;" d="M887 600h-772a19 19 0 0 1-16-29l385-459a19 19 0 0 1 34 0l385 459a19 19 0 0 1-16 29z" horiz-adv-x="1000" />

<glyph glyph-name="triangle-left-small" unicode="&#x6e;" d="M610 551l-230-194a10 10 0 0 1 0-16l230-194a10 10 0 0 1 15 9v386a10 10 0 0 1-15 9z" horiz-adv-x="1000" />

<glyph glyph-name="triangle-left" unicode="&#x6f;" d="M719 751l-459-385a19 19 0 0 1 0-34l459-385a19 19 0 0 1 29 16v772a19 19 0 0 1-29 16z" horiz-adv-x="1000" />

<glyph glyph-name="triangle-right-small" unicode="&#x70;" d="M620 357l-230 194a10 10 0 0 1-15-9v-386a10 10 0 0 1 15-9l230 194a10 10 0 0 1 0 16z" horiz-adv-x="1000" />

<glyph glyph-name="triangle-up" unicode="&#x71;" d="M903 129l-385 460a19 19 0 0 1-34 0l-385-460a19 19 0 0 1 16-29h772a19 19 0 0 1 16 29z" horiz-adv-x="1000" />

<glyph glyph-name="triangle-up-small" unicode="&#x72;" d="M703 239l-194 230a10 10 0 0 1-16 0l-194-230a10 10 0 0 1 9-15h386a10 10 0 0 1 9 15z" horiz-adv-x="1000" />

<glyph glyph-name="triangle-right" unicode="&#x73;" d="M739 366l-460 385a19 19 0 0 1-29-16v-772a19 19 0 0 1 29-16l460 385a19 19 0 0 1 0 34z" horiz-adv-x="1000" />

<glyph glyph-name="arrow-right-circle" unicode="&#x74;" d="M502 632c-8 8-21 8-29 0l0 0-28-28c-8-8-8-20 0-28l186-186h-397c-11 0-20-9-20-20v-40c0-11 9-20 20-20h397l-186-186c-8-8-8-21 0-28l28-29c8-7 21-7 29 0l0 0 283 283-283 282z m-2 138c-232 0-420-188-420-420s188-420 420-420 420 188 420 420-188 420-420 420z m0-760c-188 0-340 152-340 340s152 340 340 340 340-152 340-340-152-340-340-340l0 0z" horiz-adv-x="1000" />

<glyph glyph-name="arrow-up-circle" unicode="&#x75;" d="M782 351l-283 283-283-283c-8-8-8-20 0-28l0 0 28-28c8-8 21-8 28 0l0 0 187 186v-397c0-11 9-20 20-20h40c11 0 20 9 20 20v397l186-187c8-7 21-7 28 0l0 0 29 29c8 8 8 20 0 28l0 0z m-282 419c-232 0-420-188-420-420s188-420 420-420 420 188 420 420-188 420-420 420z m0-760c-188 0-340 152-340 340s152 340 340 340 340-152 340-340-152-340-340-340l0 0z" horiz-adv-x="1000" />

<glyph glyph-name="triangle-down-circle" unicode="&#x76;" d="M692 455h-386c-6 0-10-4-10-10 0-1 0-3 1-5l194-230c2-5 8-6 13-4 1 1 2 2 3 4l194 230c2 5 1 11-4 14-1 0-3 1-5 1z m105 192c-164 164-430 164-594 0s-164-430 0-594 430-164 594 0 164 430 0 594l0 0z m-57-537c-132-133-348-133-480 0s-133 348 0 480c132 133 348 133 480 0 134-131 139-344 7-478-1-2-3-3-7-2l0 0z" horiz-adv-x="1000" />

<glyph glyph-name="triangle-left-circle" unicode="&#x77;" d="M590 553l-230-194c-5-2-6-8-4-13 1-1 2-2 4-3l230-194c5-2 11-1 14 4 0 1 1 3 1 5v386c0 6-4 10-10 10-1 0-3 0-5-1z m207 94c-164 164-430 164-594 0s-164-430 0-594 430-164 594 0 164 430 0 594z m-57-537c-132-133-348-133-480 0s-133 348 0 480c132 133 348 133 480 0 133-132 133-348 0-480 0 0 0 0 0 0l0 0z" horiz-adv-x="1000" />

<glyph glyph-name="triangle-right-circle" unicode="&#x78;" d="M640 357l-230 194c-5 2-11 1-14-4 0-1-1-3-1-5v-386c0-6 4-10 10-10 1 0 3 0 5 1l230 194c5 2 6 8 4 13-1 1-3 2-4 3z m157 290c-164 164-430 164-594 0s-164-430 0-594 430-164 594 0 164 430 0 594l0 0z m-57-537c-132-133-348-133-480 0s-133 348 0 480c132 133 348 133 480 0 133-132 133-348 0-480 0 0 0 0 0 0l0 0z" horiz-adv-x="1000" />

<glyph glyph-name="triangle-up-circle" unicode="&#x79;" d="M509 490c-2 5-8 6-13 4-1-1-2-2-3-4l-194-230c-2-5-1-11 4-14 1 0 3-1 5-1h386c6 0 10 4 10 10 0 1 0 3-1 5l-194 230z m288 157c-164 164-430 164-594 0s-164-430 0-594 430-164 594 0 164 430 0 594l0 0z m-57-537c-132-133-348-133-480 0s-133 348 0 480c132 133 348 133 480 0 133-132 133-348 0-480l0 0z" horiz-adv-x="1000" />

<glyph glyph-name="flag-notched" unicode="&#x7a;" d="M782 686h-494v4c0 11-9 20-20 20h-20c-11 0-20-9-20-20v-680c0-11 9-20 20-20h20c11 0 20 9 20 20v370h494l-120 154 120 152z" horiz-adv-x="1000" />

<glyph glyph-name="flag-pointed" unicode="&#x7b;" d="M288 686v4c0 11-9 20-20 20h-20c-11 0-20-9-20-20v-680c0-11 9-20 20-20h20c11 0 20 9 20 20v371l494 153-494 152z" horiz-adv-x="1000" />

<glyph glyph-name="flag-rectangle" unicode="&#x7c;" d="M288 686v4c0 11-9 20-20 20h-20c-11 0-20-9-20-20v-680c0-11 9-20 20-20h20c11 0 20 9 20 20v370h494v306h-494z" horiz-adv-x="1000" />

<glyph glyph-name="flag-notched-angle" unicode="&#x7d;" d="M286 342l486 86-145 130 92 171-486-86-1 4c-2 11-12 18-23 16 0 0 0 0 0 0l-20-3c-10-2-18-12-16-23 0 0 0 0 0 0l118-670c2-11 12-18 23-16 0 0 0 0 0 0l20 3c11 2 18 12 16 23l-64 365z" horiz-adv-x="1000" />

<glyph glyph-name="flag-pointed-angle" unicode="&#x7e;" d="M286 342l460 237-513 64-1 4c-2 11-12 18-23 16 0 0 0 0 0 0l-20-3c-10-2-18-12-16-23 0 0 0 0 0 0l118-670c2-11 12-18 23-16 0 0 0 0 0 0l20 3c11 2 18 12 16 23l-64 365z" horiz-adv-x="1000" />

<glyph glyph-name="flag-rectangle-angle" unicode="&#xe800;" d="M286 342l486 86-26 151-27 150-486-86-1 4c-2 11-12 18-23 16 0 0 0 0 0 0l-20-3c-10-2-18-12-16-23 0 0 0 0 0 0l118-670c2-11 12-18 23-16 0 0 0 0 0 0l20 3c11 2 18 12 16 23l-64 365z" horiz-adv-x="1000" />

<glyph glyph-name="table" unicode="&#xe801;" d="M80-12v740h840v-740h-840z m276 620v54h-216v-54h216z m-216-40v-516h216v516h-216z m370 0v-516h256v516h-256z m256 40v54h-256v-54h256z m-370-40v-516h74v516h-74z m74 40v54h-74v-54h74z m336 0h54v54h-54v-54z m0-40v-516h54v516h-54z" horiz-adv-x="1000" />

<glyph glyph-name="filter" unicode="&#xe802;" d="M396 34l176-99c11-7 24-7 35 0 11 6 17 18 17 30v411l238 338c7 10 8 25 2 37-6 11-18 19-31 19h-664c-13 0-25-8-31-19-6-12-5-26 2-37l238-338v-311c0-13 7-25 18-31z" horiz-adv-x="1000" />

<glyph glyph-name="clock" unicode="&#xe803;" d="M797 53c-164-164-430-164-594 0s-164 430 0 594 430 164 594 0 164-430 0-594z m-57 537c-132 133-348 133-480 0s-133-348 0-480 348-133 480 0c0 0 0 0 0 0 133 132 133 348 0 480l0 0z m38-270h-253c-3-6-10-10-17-10h-20c-7 0-14 4-17 10h-13c-11 0-20 9-20 20v20c0 11 9 20 20 20h10v170c0 11 9 20 20 20h20c11 0 20-9 20-20v-170h250c11 0 20-9 20-20v-20c0-11-9-20-20-20z" horiz-adv-x="1000" />

<glyph glyph-name="duplicate" unicode="&#xe804;" d="M900 370h-20c-11 0-20 9-20 20v160c0 11 9 20 20 20h20c11 0 20-9 20-20v-160c0-11-9-20-20-20z m0 280h-20c-11 0-20 9-20 20v40h-40c-11 0-20 9-20 20v20c0 11 9 20 20 20h100v-100c0-11-9-20-20-20z m-220-480h-20v-240h-580v580h200v40c0 11 9 20 20 20h20c11 0 20-9 20-20v-40h320v-280h20c11 0 20-9 20-20v-20c0-11-9-20-20-20z m-80 280h-460v-460h460v460z m-390-200h130v130c0 11 9 20 20 20h20c11 0 20-9 20-20v-130h130c11 0 20-9 20-20v-20c0-11-9-20-20-20h-130v-130c0-11-9-20-20-20h-20c-11 0-20 9-20 20v130h-130c-11 0-20 9-20 20v20c0 11 9 20 20 20z m470 460h-160c-11 0-20 9-20 20v20c0 11 9 20 20 20h160c11 0 20-9 20-20v-20c0-11-9-20-20-20z m-300 0h-40v-40c0-11-9-20-20-20h-20c-11 0-20 9-20 20v100h100c11 0 20-9 20-20v-20c0-11-9-20-20-20z m440-480h40v40c0 11 9 20 20 20h20c11 0 20-9 20-20v-100h-100c-11 0-20 9-20 20v20c0 11 9 20 20 20z" horiz-adv-x="1000" />

<glyph glyph-name="dots-vertical" unicode="&#xe805;" d="M500 266c-46 0-84 38-84 84s38 84 84 84 84-38 84-84-38-84-84-84z m0 280c-46 0-84 38-84 84s38 84 84 84 84-38 84-84l0 0c0-46-38-84-84-84z m0-392c46 0 84-38 84-84s-38-84-84-84-84 38-84 84l0 0c0 46 38 84 84 84z" horiz-adv-x="1000" />

<glyph glyph-name="dots-horizontal" unicode="&#xe806;" d="M416 350c0 46 38 84 84 84s84-38 84-84-38-84-84-84-84 38-84 84z m280 0c0 46 38 84 84 84s84-38 84-84-38-84-84-84-84 38-84 84z m-392 0c0-46-38-84-84-84s-84 38-84 84 38 84 84 84 84-38 84-84l0 0z" horiz-adv-x="1000" />

<glyph glyph-name="code" unicode="&#xe807;" d="M663 222v43l180 87-180 88v43l229-115v-31z m-268-98l158 445h41l-158-445h-41z m-288 244l229 115v-43l-180-88 180-87v-43l-229 115v31z" horiz-adv-x="1000" />

<glyph glyph-name="blockquote" unicode="&#xe808;" d="M693 283a373 373 0 0 0-138-104l-25 40q64 31 100 72t42 100h-32q-35 0-57 8a91 91 0 0 0-35 22 73 73 0 0 0-19 29 110 110 0 0 0-5 34q0 36 29 63a97 97 0 0 0 69 27q62 0 95-41t33-113q0-68-57-137z m-364-106q-62 0-95 41t-33 114q0 67 57 136a373 373 0 0 0 138 104l25-40q-64-31-100-72t-42-99h31q35 0 57-8a91 91 0 0 0 36-22 78 78 0 0 0 18-30 107 107 0 0 0 6-34q0-36-29-63a97 97 0 0 0-69-27z" horiz-adv-x="1000" />

<glyph glyph-name="superscript" unicode="&#xe809;" d="M827 493h-172v25a108 108 0 0 0 14 12q9 7 21 16 7 5 17 11t23 12a175 175 0 0 1 23 14 71 71 0 0 1 14 14 46 46 0 0 1 7 14 89 89 0 0 1 2 25q0 23-12 33t-32 11a55 55 0 0 1-22-5 35 35 0 0 1-16-13q1-5 3-13a68 68 0 0 0 2-16 17 17 0 0 0-6-13q-5-5-17-5a17 17 0 0 0-14 6 27 27 0 0 0-5 17 41 41 0 0 0 6 20 64 64 0 0 0 15 19 80 80 0 0 0 25 13 98 98 0 0 0 32 5q38 0 60-17a53 53 0 0 0 22-44 72 72 0 0 0-4-25 50 50 0 0 0-13-19 95 95 0 0 0-22-16q-13-7-40-19-16-7-30-15a155 155 0 0 1-22-15h141v-32z m-404-337q27 0 43 5t16 13q0 5-7 20t-19 33q-13 21-31 49t-34 52q-29-37-64-89t-36-61a16 16 0 0 1 10-16q9-5 43-6v-23h-170v23q8 0 21 2a68 68 0 0 1 22 6 109 109 0 0 1 26 19 226 226 0 0 1 21 25q20 28 52 70t57 77q-19 27-48 68t-61 90a254 254 0 0 1-22 28 67 67 0 0 1-21 15 83 83 0 0 1-21 5q-13 2-21 3v23h210v-23a238 238 0 0 1-39-5q-20-4-20-12 0-6 8-21t19-33q11-18 25-39t34-51q36 49 62 89t26 51q0 10-12 15t-40 6v23h169v-23a186 186 0 0 1-21-3 88 88 0 0 1-22-5q-17-8-25-18t-22-27q-25-33-47-61t-52-71q26-36 57-83t61-88a202 202 0 0 1 22-27q13-13 21-18a49 49 0 0 1 21-6q13-1 22-1v-23h-213v23z" horiz-adv-x="1000" />

<glyph glyph-name="subscript" unicode="&#xe80a;" d="M827 7h-172v25a108 108 0 0 0 14 12q9 7 21 16 7 5 17 11t23 12a175 175 0 0 1 23 14 71 71 0 0 1 14 14 46 46 0 0 1 7 14 89 89 0 0 1 2 25q0 23-12 33t-32 11a55 55 0 0 1-22-5 35 35 0 0 1-16-13q1-5 3-13a68 68 0 0 0 2-16 17 17 0 0 0-6-13q-5-5-17-5a17 17 0 0 0-14 6 27 27 0 0 0-5 17 41 41 0 0 0 6 20 64 64 0 0 0 15 19 80 80 0 0 0 25 13 98 98 0 0 0 32 5q38 0 60-17a53 53 0 0 0 22-44 72 72 0 0 0-4-25 50 50 0 0 0-13-19 95 95 0 0 0-22-16q-13-7-40-19-16-7-30-15a155 155 0 0 1-22-15h141v-32z m-404 149q27 0 43 5t16 13q0 5-7 20t-19 33q-13 21-31 49t-34 52q-29-37-64-89t-36-61a16 16 0 0 1 10-16q9-5 43-6v-23h-170v23q8 0 21 2a68 68 0 0 1 22 6 109 109 0 0 1 26 19 226 226 0 0 1 21 25q20 28 52 70t57 77q-19 27-48 68t-61 90a254 254 0 0 1-22 28 67 67 0 0 1-21 15 83 83 0 0 1-21 5q-13 2-21 3v23h210v-23a238 238 0 0 1-39-5q-20-4-20-12 0-6 8-21t19-33q11-18 25-39t34-51q36 49 62 89t26 51q0 10-12 15t-40 6v23h169v-23a186 186 0 0 1-21-3 88 88 0 0 1-22-5q-17-8-25-18t-22-27q-25-33-47-61t-52-71q26-36 57-83t61-88a202 202 0 0 1 22-27q13-13 21-18a49 49 0 0 1 21-6q13-1 22-1v-23h-213v23z" horiz-adv-x="1000" />

<glyph glyph-name="indent" unicode="&#xe869;" d="M80 130h840v-130h-840v130z m300 190h540v-130h-540v130z m0 190h540v-130h-540v130z m-300 190h840v-130h-840v130z m246-343l-230 194c-5 2-11 1-14-4 0-1-1-3-1-5v-387c0-5 4-9 10-9 1 0 3 0 5 1l230 194c5 2 6 8 3 13 0 1-2 2-3 3z" horiz-adv-x="1000" />

<glyph glyph-name="italic" unicode="&#xe86a;" d="M451 570l-5-21c7-1 14-2 21-4 8-1 16-4 23-7 6-2 9-5 11-8 2-3 3-7 3-11 0-2-1-4-1-5 0-2 0-4-1-6l-74-323c-1-6-4-13-8-18-5-6-12-10-19-12-4-2-12-3-23-4-11-1-19-1-25-2l-4-20h199l4 20c-5 1-13 2-23 4-11 2-18 4-21 5-4 2-8 5-11 9-2 3-3 8-3 12 0 2 0 3 0 5 0 2 1 3 1 5l75 322c2 6 4 13 8 18 4 6 10 10 19 13 7 2 15 3 23 4 8 2 16 3 25 3l4 20-198 1 0 0z" horiz-adv-x="1000" />

<glyph glyph-name="justify" unicode="&#xe86b;" d="M80 130h840v-130h-840v130z m0 190h840v-130h-840v130z m0 190h840v-130h-840v130z m0 190h840v-130h-840v130z" horiz-adv-x="1000" />

<glyph glyph-name="left" unicode="&#xe86c;" d="M80 130h680v-130h-680v130z m0 190h740v-130h-740v130z m0 190h560v-130h-560v130z m0 190h640v-130h-640v130z" horiz-adv-x="1000" />

<glyph glyph-name="envelope-flat" unicode="&#xe871;" d="M140 110v480h720v-480h-720z m669 40l-179 179-21-21h-215l-22 22-180-180h617z m-629 44l164 164-164 164v-328l0 0z m28 356l202-202h183l202 202h-587z m612-31l-161-162 161-161v323z" horiz-adv-x="1000" />

<glyph glyph-name="envelope-angle" unicode="&#xe872;" d="M415-74l-339 339 509 509 339-339-509-509z m445 501h-253v-30l-2-2-38-38-72-72-37-37-3-3h-31v-254l436 436z m-476-413v231h-232l232-231z m-232 271h286l129 129v286l-415-415z m455 411v-229h228l-228 229z" horiz-adv-x="1000" />

<glyph glyph-name="bell" unicode="&#xe873;" d="M439 636c-108-28-185-126-185-238v-164c0-15-12-28-27-28-30 1-55-24-55-54 0-30 24-55 54-55 0 0 1 0 1 0h548c30 0 55 24 55 54s-24 55-55 55c0 0 0 0 0 0-15 0-28 13-28 28 0 0 0 0 0 0v164c0 112-76 210-185 238v28c0 34-27 62-61 62s-62-28-62-62l0-28 0 0z m-34-566h192c0-53-43-96-96-96s-96 43-96 96z" horiz-adv-x="1000" />

<glyph glyph-name="backgroundcolor" unicode="&#xe876;" d="M904-70l16 16v-16h-16z m-85 0l101 101v-43l-58-58h-43z m-84 0l185 185v-42l-143-143h-42l0 0z m-85 0l120 120h30v30l120 120v-42l-228-228h-42l0 0z m150 235l120 120v-42l-120-120v42z m0 85l120 120v-42l-120-120v42z m0 85l120 120v-43l-120-120v43l0 0z m0 85l120 120v-43l-120-120v43l0 0z m0 85l120 120v-43l-120-120v43l0 0z m0 84l120 120v-42l-120-120v42l0 0z m0 61h-24l120 120h24v-18l-120-120v18z m-109 0l120 120h42l-120-120h-42z m-85 0l120 120h42l-120-120h-42z m-85 0l120 120h43l-120-120h-43z m-85 0l120 120h43l-120-120h-43z m-85 0l120 120h43l-120-120h-43z m-84 0l120 120h42l-120-120h-42z m-67 0v-24l-120-120v42l222 222h42l-120-120h-24z m-120-17l137 137h42l-179-179v42z m0 85l52 52h42l-94-94v42z m0 52h10l-10-10v10z m120-229l-120-120v42l120 120v-42l0 0z m0-85l-120-120v43l120 120v-43l0 0z m0-85l-120-120v43l120 120v-43l0 0z m0-85l-120-120v43l120 120v-43l0 0z m0-84l-120-120v42l120 120v-42l0 0z m0-85l-120-120v42l120 120v-42l0 0z m0-67h18l-120-120h-18v24l120 120v-24z m103 0l-120-120h-42l120 120h42l0 0z m85 0l-120-120h-43l120 120h43z m85 0l-120-120h-43l120 120h43z m85 0l-120-120h-43l120 120h43z m84 0l-120-120h-42l120 120h42l0 0z m85 0l-120-120h-42l120 120h42l0 0z m0 101c-7 0-13 1-19 3-7 2-13 4-19 7-6 4-11 9-16 15-4 6-8 12-10 19l-145 374h-24c-21-53-44-113-71-181s-50-129-72-184c-3-8-8-17-13-25-5-6-12-12-19-17-6-3-13-6-20-8-6-1-13-2-19-3v-22h163v22c-15 0-29 3-43 8-13 4-20 11-20 19 1 4 1 9 2 13 1 7 3 15 6 22 2 9 6 18 9 29 4 11 8 23 14 37h153l36-97c0-2 1-4 1-7 1-2 1-4 1-7 0-4-5-8-16-11-13-3-26-5-39-6v-22h180l0 22 0 0z m-305 156l64 168 66-168h-130z" horiz-adv-x="1000" />

<glyph glyph-name="bold" unicode="&#xe877;" d="M628 352a254 254 0 0 1-51 11v6a315 315 0 0 1 46 14 155 155 0 0 1 36 20 88 88 0 0 1 26 29 82 82 0 0 1 9 40q0 48-40 73t-131 25h-239v-25q10-1 22-4a123 123 0 0 0 23-6q13-6 16-13a45 45 0 0 0 4-19v-311a41 41 0 0 0-5-19q-4-8-15-13-6-2-21-4t-24-3v-24h229a545 545 0 0 1 86 6 217 217 0 0 1 64 20 98 98 0 0 1 41 37q14 23 14 56 0 28-13 49a110 110 0 0 1-32 34 174 174 0 0 1-45 21z m-79 48q-24-23-74-23h-16v163q7 1 16 1t15 0q42 0 62-20t21-57q0-40-24-64z m23-218q-23-25-60-25-21 0-36 8t-17 20v161q4 0 14 1t16 0q51 0 79-24t27-71q0-45-23-70z" horiz-adv-x="1000" />

<glyph glyph-name="center" unicode="&#xe878;" d="M280 130h440v-130h-440v130z m-160 190h740v-130h-740v130z m120 190h520v-130h-520v130z m-80 190h680v-130h-680v130z" horiz-adv-x="1000" />

<glyph glyph-name="fontcolor" unicode="&#xe879;" d="M904-70l16 16v-16h-16z m-85 0l101 101v-43l-58-58h-43z m-84 0l120 120h42l-120-120h-42l0 0z m-85 0l120 120h42l-120-120h-42l0 0z m-85 0l120 120h42l-120-120h-42l0 0z m-19 221c14 1 27 3 40 6 10 3 16 7 16 12 0 2 0 4-1 6 0 3-1 5-2 7l-36 98h-152c-6-15-10-27-14-38s-7-20-10-29c-2-7-4-14-5-22-1-4-2-9-2-13 0-8 7-14 19-19 14-5 29-7 44-8v-22h-164v22c7 1 14 2 20 4 7 1 14 4 20 7 7 5 13 11 19 18 5 7 10 16 13 25 22 54 46 115 72 183 27 68 50 129 71 182h24l145-375c2-7 6-13 10-19 5-6 10-10 16-14 6-4 12-6 19-8 6-1 12-2 19-3v-22h-181l0 22 0 0z m-60 324l-64-168h130l-66 168z m-303-545h-42l120 120h42l-120-120z m-103 0v24l96 96h42l-120-120h-18z m0 109l11 11h42l-53-53v42z m308 11l-120-120h-43l120 120h43z m85 0l-120-120h-43l120 120h43z m85 0l-120-120h-43l120 120h43z m84 0l-120-120h-42l120 120h42l0 0z" horiz-adv-x="1000" />

<glyph glyph-name="notched-triangle-left" unicode="&#xe87a;" d="M146 366l691 345c10 5 21 2 27-7 1-3 2-6 2-9l-40-286-279-59 279-60 40-287c0-10-9-19-19-19-4 0-7 1-10 3l-691 345c-10 6-13 17-7 26 1 3 4 6 7 8z" horiz-adv-x="1000" />

<glyph glyph-name="notched-triangle-up" unicode="&#xe87b;" d="M518 704l345-691c6-10 3-21-7-27-3-1-6-2-9-2l-285 40-60 279-60-279-287-40c-10 0-19 9-19 19 0 4 1 7 3 10l345 691c6 10 17 13 27 7 3-1 5-4 7-7z" horiz-adv-x="1000" />

<glyph glyph-name="notched-triangle-down" unicode="&#xe87c;" d="M484-7l-345 692c-5 9-2 21 7 26 3 2 6 3 9 3l286-40 59-280 60 280 287 40c10 0 19-9 19-19 0-4-1-7-3-10l-345-692c-6-9-17-12-26-7-3 2-6 5-8 7z" horiz-adv-x="1000" />

<glyph glyph-name="notched-triangle-right" unicode="&#xe87d;" d="M856 332l-691-345c-9-6-21-3-26 7-2 3-3 6-3 9l40 285 280 60-280 60-40 287c0 10 9 19 19 19 4 0 7-1 10-3l692-345c9-6 12-17 7-27-2-3-5-5-8-7z" horiz-adv-x="1000" />

<glyph glyph-name="ol" unicode="&#xe87e;" d="M258 90v120h622v-120h-622z m0 320h622v-120h-622v120z m0 200h622v-120h-622v120z m-73-516c-4-3-10-6-15-8-12-3-25-3-37 1-6 2-11 5-15 9-4 4-7 9-9 14-3 6-4 13-3 20h24c0-4 1-7 2-10 0-3 2-6 4-8 2-2 4-4 7-5 3-2 6-2 9-2 6-1 11 1 15 5 6 7 8 17 3 25-2 3-4 5-7 6-3 1-6 2-10 2-3 0-6 0-9 0v18c3 0 5 0 8 0 3 0 6 1 9 2 3 1 5 3 7 5 2 2 3 6 2 9 1 4-1 9-5 12-4 3-8 4-12 4-7 0-12-2-15-6-3-5-5-10-5-16h-24c0 6 1 12 3 18 2 5 5 9 9 13 4 4 8 7 14 9 5 3 11 4 17 4 5 0 10-1 15-3 5-1 10-3 14-6 4-3 7-7 10-11 2-5 4-10 4-15 0-6-2-12-5-17-3-4-8-8-13-9v-1c6-1 12-4 16-10 4-5 7-11 6-18 0-12-5-23-14-31z m-76 211c2 5 5 10 9 15 4 4 8 8 12 11 5 4 10 8 16 11 3 2 5 4 9 6 3 2 6 4 8 7 3 2 5 5 7 8 1 3 2 7 2 10 1 6-1 11-5 15-4 3-9 5-14 5-3 0-6-1-9-3-3-2-5-4-6-7-2-3-3-6-4-9 0-3-1-7-1-10h-24c0 7 1 13 3 20 1 6 4 11 8 16 4 5 9 8 15 11 6 2 13 4 20 4 5 0 11-1 16-3 5-2 10-5 14-8 4-3 7-8 9-12 3-6 4-11 4-17 0-6-1-11-3-16-2-5-5-9-8-13-4-3-8-6-12-9-4-3-8-6-13-9-4-3-8-6-12-9-4-3-8-7-11-11h60v-22h-93c0 7 1 13 3 19z m38 263h-31v19c4 0 8 0 12 1 4 1 8 2 12 4 3 2 6 5 8 8 2 4 4 8 4 12h21v-126h-26v82l0 0z" horiz-adv-x="1000" />

<glyph glyph-name="outdent" unicode="&#xe87f;" d="M80 130h840v-130h-840v130z m310 190h530v-130h-530v130z m0 190h530v-130h-530v130z m-310 190h840v-130h-840v130z m6-359l230-194c5-2 11-1 14 4 0 1 1 3 1 5v386c0 6-4 10-10 10-1 0-3 0-5-1l-230-194c-5-2-6-8-4-13 1-1 3-2 4-3z" horiz-adv-x="1000" />

<glyph glyph-name="right" unicode="&#xe880;" d="M180 130h740v-130h-740v130z m160 190h580v-130h-580v130z m-180 190h760v-130h-760v130z m80 190h680v-130h-680v130z" horiz-adv-x="1000" />

<glyph glyph-name="strike" unicode="&#xe881;" d="M707 264h-24c0-2 1-4 1-7 0-19-5-38-14-55-8-17-21-33-36-44-17-14-36-24-57-31-22-7-47-10-76-10-26 0-51 3-76 10-20 5-40 13-59 24l-21-22h-27l-3 135h-20v38h186c-9 3-18 5-26 8-15 5-29 10-41 15-30 11-52 28-66 50-15 22-22 48-22 74 0 17 4 34 11 50 8 16 19 30 33 42 13 12 31 22 52 29 23 8 46 12 70 12 23 0 46-4 68-11 22-6 38-13 51-20l19 19h27l2-151h-27c-6 16-13 33-21 50-8 15-17 29-27 42-10 12-22 22-35 29-13 7-29 11-47 11-22 0-40-7-54-19-14-12-22-29-22-47 0-18 7-32 19-44 12-11 31-21 57-29 16-5 31-11 47-16 16-5 30-10 43-15 30-11 53-27 68-48 7-9 13-20 17-31h30l0-38 0 0z m-343-24c9-16 20-31 32-45 13-13 27-25 43-34 15-9 34-13 55-13 28 0 49 7 64 21 15 14 23 31 23 52 0 16-7 32-19 43h-210c4-8 8-16 12-24l0 0z" horiz-adv-x="1000" />

<glyph glyph-name="ul" unicode="&#xe882;" d="M258 210h622v-120h-622v120z m0 200h622v-120h-622v120z m0 200h622v-120h-622v120z m-98-400c33 0 60-27 60-60s-27-60-60-60-60 27-60 60c0 0 0 0 0 0 0 33 27 60 60 60 0 0 0 0 0 0z m0 200c33 0 60-27 60-60 0-33-27-60-60-60s-60 27-60 60c0 0 0 0 0 0 0 33 27 60 60 60 0 0 0 0 0 0z m0 200c33 0 60-27 60-60s-27-60-60-60-60 27-60 60c0 0 0 0 0 0 0 33 27 60 60 60 0 0 0 0 0 0z" horiz-adv-x="1000" />

<glyph glyph-name="underline" unicode="&#xe883;" d="M763 576h-191v-25c9-1 19-4 28-6 14-4 23-8 28-13 8-6 13-15 17-28s5-33 5-60v-149c0-43-10-75-30-97s-49-33-85-33c-37 0-65 10-84 30s-29 51-29 95v223c0 6 2 13 4 19 3 6 8 10 16 13 7 2 14 4 21 5 7 1 13 2 20 2v24h-231v-24c5-1 12-2 19-3 7-2 14-4 20-7 8-4 13-9 16-14 3-6 5-12 4-19v-225c0-51 18-90 52-119 34-28 83-42 146-42 53 0 97 15 129 44 33 29 49 68 49 116v164c0 27 2 48 5 61 3 13 9 23 17 28 8 6 18 10 28 11 11 3 20 4 26 5l0 24 0 0z m-549-544v57h571v-57h-571z" horiz-adv-x="1000" />

<glyph glyph-name="chevron-right-thin" unicode="&#xe8d7;" d="M570 350l-276-276c-7-8-20-8-28 0 0 0 0 0 0 0l-42 42c-8 8-8 21 0 29l205 205-205 205c-8 8-8 21 0 29l42 42c8 8 21 8 28 0 0 0 0 0 0 0l276-276z" horiz-adv-x="1000" />

<glyph glyph-name="chevron-left-thin" unicode="&#xe8d8;" d="M430 350l276 276c7 8 20 8 28 0 0 0 0 0 0 0l42-42c8-8 8-21 0-29l-205-205 205-205c8-8 8-21 0-29l-42-42c-8-8-21-8-28 0 0 0 0 0 0 0l-276 276z" horiz-adv-x="1000" />

<glyph glyph-name="chevron-down-thin" unicode="&#xe8d9;" d="M500 279l-276 276c-7 8-7 20 0 28l43 43c8 7 20 7 28 0l205-205 205 205c8 7 20 7 28 0l43-43c7-8 7-20 0-28l-276-276z" horiz-adv-x="1000" />

<glyph glyph-name="chevron-up-thin" unicode="&#xe8da;" d="M500 420l276-276c8-7 8-20 0-28 0 0 0 0 0 0l-42-42c-8-8-21-8-29 0l-205 205-205-205c-8-8-21-8-29 0l-42 42c-8 8-8 21 0 28 0 0 0 0 0 0l276 276z" horiz-adv-x="1000" />
</font>
</defs>
</svg>
